<?xml version="1.0" standalone="no"?>
<!DOCTYPE svg PUBLIC "-//W3C//DTD SVG 20010904//EN"
 "http://www.w3.org/TR/2001/REC-SVG-20010904/DTD/svg10.dtd">
<svg version="1.0" xmlns="http://www.w3.org/2000/svg"
 width="735.000000pt" height="736.000000pt" viewBox="0 0 735.000000 736.000000"
 preserveAspectRatio="xMidYMid meet">

<g transform="translate(0.000000,736.000000) scale(0.100000,-0.100000)"
fill="#000000" stroke="none">
<path d="M0 6519 c0 -761 2 -840 16 -835 9 3 28 9 42 12 22 5 20 1 -15 -23
l-43 -28 0 -714 0 -714 52 49 c47 44 95 95 177 189 53 61 188 252 233 330 72
126 133 251 181 372 25 61 57 124 72 140 31 33 157 207 175 243 7 14 49 84 93
155 44 72 107 186 140 255 58 124 71 155 106 260 11 30 28 78 39 105 10 28 19
68 20 90 0 40 0 39 -35 -35 -19 -41 -41 -100 -49 -130 -8 -30 -19 -59 -25 -64
-5 -6 -9 -21 -9 -34 0 -13 -4 -20 -10 -17 -5 3 -10 0 -10 -8 0 -13 -30 -47
-42 -47 -4 0 -4 9 -1 20 9 35 -6 22 -26 -23 -21 -46 -145 -163 -257 -243 -53
-38 -196 -112 -279 -144 -86 -33 -303 -86 -312 -76 -4 3 1 6 10 6 10 0 17 5
17 10 0 6 15 10 33 11 32 0 32 0 7 11 l-25 11 25 7 c21 7 22 8 5 9 -18 1 -20
7 -17 46 2 25 8 43 12 40 5 -3 11 -1 15 5 3 5 -1 10 -9 10 -9 0 -16 6 -16 14
0 8 -6 17 -12 20 -7 3 -3 3 9 0 14 -3 23 -1 23 6 0 6 5 8 10 5 6 -3 13 1 16 9
3 9 14 16 23 16 11 0 12 3 4 8 -10 6 -8 12 5 24 121 110 402 444 402 478 0 5
5 10 10 10 6 0 10 5 10 10 0 21 -16 9 -40 -29 -13 -22 -28 -37 -34 -34 -6 4
-6 8 2 11 7 2 12 12 12 23 0 10 4 19 8 19 5 0 18 19 28 42 10 23 29 54 41 69
12 14 24 40 25 58 1 17 6 31 10 31 4 0 8 7 8 15 0 23 22 65 31 59 5 -3 6 2 3
10 -8 20 -39 -25 -102 -148 -26 -50 -50 -93 -55 -94 -4 -2 -5 -7 -2 -12 7 -11
-32 -57 -41 -48 -4 4 -1 15 7 25 13 15 11 15 -17 -1 -17 -11 -39 -33 -49 -50
-29 -50 -139 -179 -205 -239 -59 -55 -122 -100 -210 -150 -49 -28 -181 -80
-187 -73 -2 2 45 32 104 67 150 87 233 151 336 258 86 89 212 263 260 358 32
63 62 187 98 407 34 204 34 266 1 99 -13 -61 -38 -164 -56 -230 -19 -65 -42
-147 -51 -183 -25 -97 -32 -103 -235 -176 -92 -34 -241 -57 -240 -38 1 5 26
27 57 49 104 74 255 263 358 445 55 99 170 364 181 419 l7 31 -422 0 -421 0 0
-841z m710 -239 c0 -5 -7 -10 -16 -10 -8 0 -12 5 -9 10 3 6 10 10 16 10 5 0 9
-4 9 -10z m210 -544 c0 -3 -4 -8 -10 -11 -5 -3 -10 -1 -10 4 0 6 5 11 10 11 6
0 10 -2 10 -4z m-71 -92 c-67 -87 -82 -103 -75 -81 3 10 6 23 6 28 0 13 102
121 108 114 3 -2 -15 -30 -39 -61z m-582 20 c-3 -3 -12 -4 -19 -1 -8 3 -5 6 6
6 11 1 17 -2 13 -5z"/>
<path d="M4028 7238 c-1 -68 -3 -154 -4 -193 -2 -84 -24 -236 -69 -485 -9 -54
-53 -226 -80 -315 -13 -44 -40 -139 -59 -211 -20 -72 -74 -245 -121 -385 -47
-140 -85 -265 -85 -279 1 -14 7 -38 14 -55 l13 -30 17 60 c9 33 42 141 73 240
31 99 77 250 103 335 l47 155 69 30 c38 17 81 38 94 47 89 61 427 172 586 193
l49 7 100 -102 c55 -56 156 -150 224 -208 204 -176 235 -205 253 -233 20 -33
10 -40 -49 -34 -30 4 -32 3 -13 -3 17 -6 1 -9 -55 -9 -117 -1 -294 -35 -415
-81 -58 -22 -121 -45 -141 -51 -48 -15 -199 -129 -301 -226 -80 -77 -84 -85
-20 -37 18 14 35 23 37 20 3 -2 -34 -62 -80 -132 -93 -140 -106 -174 -52 -134
46 36 298 208 303 208 2 0 4 -26 4 -57 0 -83 10 -133 26 -133 8 0 14 4 14 10
0 5 14 17 31 26 37 19 86 13 120 -15 22 -18 22 -19 6 -45 -34 -51 -102 -67
-145 -33 -22 18 -23 1 -2 -55 28 -77 99 -179 144 -208 l39 -25 -29 -7 c-16 -4
29 -6 100 -4 91 2 131 0 139 -9 9 -10 14 -9 22 1 6 8 38 17 76 20 l66 7 14
-32 c18 -39 27 -40 21 -1 -4 25 0 31 24 40 15 6 54 12 85 13 52 1 62 -2 98
-31 43 -35 49 -33 26 8 -21 38 -19 43 34 72 35 20 50 35 54 55 7 35 63 97 79
87 7 -5 9 -2 5 8 -3 9 3 24 14 34 10 9 31 37 46 63 36 61 84 113 100 107 8 -3
13 2 13 13 0 10 7 24 16 32 28 23 44 64 31 79 -10 10 -7 12 11 7 19 -5 23 -2
20 16 -1 12 2 28 6 36 6 10 5 12 -2 7 -17 -10 -15 13 2 29 45 46 66 -94 92
-610 40 -815 -17 -1304 -201 -1718 -26 -60 -72 -108 -220 -232 -143 -119 -520
-395 -685 -500 -41 -27 -120 -78 -175 -114 -55 -36 -172 -102 -260 -146 -228
-116 -334 -138 -450 -94 -48 18 -177 99 -380 240 -27 19 -104 68 -170 108
-181 112 -473 300 -535 345 -153 112 -339 293 -414 405 -137 204 -183 339
-311 911 -69 310 -159 602 -215 703 -8 13 -7 17 4 17 8 0 16 -4 18 -9 7 -20
106 -138 173 -205 73 -74 178 -166 183 -161 2 1 -22 36 -53 76 -80 106 -175
306 -175 371 0 20 127 120 182 142 l35 15 6 -107 c3 -59 10 -120 16 -135 l11
-28 26 20 c15 12 37 21 50 21 36 0 74 -21 74 -41 0 -20 -67 -79 -91 -79 -8 0
-18 -3 -22 -6 -16 -16 96 -184 137 -207 19 -10 17 -12 -29 -23 -27 -7 -64 -13
-81 -13 -25 -1 -37 -9 -58 -41 -30 -46 -26 -50 18 -17 18 14 51 26 79 29 42 5
47 3 47 -14 0 -18 2 -18 30 6 32 26 91 43 110 31 6 -4 21 2 33 13 21 18 187
73 270 88 53 9 67 47 67 177 l0 100 48 -44 c81 -74 170 -149 177 -149 9 0 -32
75 -96 172 -40 62 -56 94 -48 99 7 4 8 13 4 20 -5 8 21 -13 56 -46 258 -241
389 -335 654 -468 193 -97 444 -192 407 -155 -6 6 -23 12 -37 14 -33 3 -289
128 -415 202 -113 66 -271 169 -321 209 -125 99 -350 315 -419 402 -19 24 -40
49 -45 55 -20 21 -157 219 -163 235 -3 9 -13 24 -22 34 -9 9 -36 53 -61 97
-37 68 -59 96 -59 75 0 -11 84 -171 125 -240 23 -38 68 -122 100 -185 63 -126
122 -231 168 -298 58 -86 12 -55 -78 53 -248 295 -449 680 -593 1135 -43 138
-69 230 -76 270 -3 19 -13 60 -21 90 -9 30 -18 80 -19 110 -2 29 -8 56 -15 58
-7 2 -8 14 -5 29 5 20 4 24 -6 18 -9 -5 -11 -4 -6 4 11 17 10 89 -2 104 -5 6
-17 59 -26 117 -9 58 -23 141 -31 185 -8 44 -17 114 -21 155 -12 121 -22 39
-17 -135 4 -138 -3 -224 -30 -340 -8 -35 -20 -159 -19 -190 1 -26 0 -27 -7
-10 -9 18 -10 16 -11 -10 -1 -16 -1 -45 0 -62 1 -18 -3 -33 -9 -33 -6 0 -11
-17 -11 -38 0 -21 -5 -43 -12 -50 -9 -9 -9 -12 0 -12 15 0 16 -27 1 -32 -6 -2
-15 -21 -19 -43 -5 -22 -13 -58 -19 -80 -5 -22 -12 -53 -15 -70 -2 -16 -12
-56 -20 -88 -18 -64 -20 -96 -5 -58 14 36 21 19 8 -20 -14 -41 -30 -62 -22
-28 3 13 2 20 -3 16 -10 -10 -33 -93 -34 -124 0 -13 -4 -23 -9 -23 -5 0 -12
-16 -16 -36 -3 -20 -10 -44 -14 -53 -5 -9 -16 -41 -26 -71 -25 -81 -108 -275
-186 -437 -57 -119 -180 -326 -218 -370 -6 -7 -11 -15 -11 -18 0 -6 -51 -86
-60 -95 -3 -3 -11 -17 -19 -32 -8 -15 -19 -25 -24 -21 -6 3 -7 1 -3 -6 8 -13
-18 -44 -28 -33 -4 3 -4 -1 -1 -10 4 -11 0 -18 -14 -23 -11 -3 -18 -11 -15
-18 2 -7 -14 -34 -36 -61 -22 -26 -40 -53 -40 -59 0 -5 -19 -33 -42 -62 -24
-28 -54 -67 -68 -86 -54 -73 -480 -482 -480 -460 0 5 4 12 9 16 18 11 196 278
237 355 16 30 32 57 35 60 14 10 133 269 196 424 114 281 129 320 147 386 10
36 31 107 47 158 44 139 37 167 -13 52 -60 -141 -64 -150 -82 -210 -18 -57
-37 -107 -66 -175 -10 -22 -23 -58 -31 -80 -7 -22 -21 -52 -31 -67 -10 -14
-18 -31 -18 -36 0 -21 -178 -175 -274 -239 -107 -70 -262 -154 -359 -192 -60
-25 -87 -25 -39 0 29 15 44 25 70 50 9 8 49 41 87 71 94 75 168 147 250 243
38 44 72 82 75 85 10 10 96 125 115 155 10 17 25 36 32 43 7 7 13 19 13 27 0
7 7 15 15 19 17 6 21 36 5 36 -5 0 -10 -4 -10 -9 0 -19 -279 -306 -385 -397
-161 -136 -347 -268 -473 -335 l-62 -33 0 -153 c0 -119 3 -161 15 -184 9 -16
15 -49 15 -72 -1 -23 1 -51 5 -62 4 -13 -1 -28 -14 -42 -19 -20 -21 -35 -20
-177 0 -133 2 -156 15 -156 9 0 12 -5 8 -12 -11 -18 -15 -54 -20 -207 -3 -106
-1 -148 9 -159 14 -18 13 -413 -3 -582 -6 -61 -10 -571 -10 -1222 l0 -1118
588 0 588 0 17 308 c10 169 20 384 23 477 2 94 11 238 20 320 17 168 19 181
28 315 11 154 27 271 47 340 10 36 21 90 24 120 4 30 10 64 15 75 26 66 33
108 26 177 -16 157 -16 312 -2 331 8 10 58 36 112 58 54 22 113 49 130 60 17
10 35 19 40 19 5 0 22 -37 38 -82 32 -91 141 -339 211 -479 51 -101 51 -100
30 -307 -38 -361 -124 -732 -197 -847 -67 -106 -182 -180 -342 -220 -97 -24
-98 -35 -6 -50 172 -29 364 32 537 169 88 70 140 133 198 239 20 37 39 67 42
67 9 0 -7 -120 -29 -215 -20 -86 -66 -223 -87 -262 -15 -26 -61 -141 -60 -150
0 -4 23 39 51 97 106 220 153 421 178 760 6 80 13 156 16 169 l5 24 24 -23
c14 -13 28 -21 31 -17 3 3 -6 37 -21 75 l-27 69 35 52 c21 30 47 89 62 139 14
48 36 121 49 162 13 41 32 119 42 173 10 53 21 96 24 95 3 -2 57 -29 121 -61
139 -70 118 -26 185 -387 27 -146 27 -146 81 75 14 61 26 120 26 133 -1 12 2
22 6 22 11 0 35 92 34 132 0 35 19 59 32 39 24 -40 42 -510 27 -719 -6 -86
-16 -241 -22 -344 -13 -236 -33 -346 -116 -622 -24 -82 -43 -154 -41 -160 6
-17 53 73 83 157 30 86 27 84 164 132 36 12 112 39 169 59 112 40 134 38 113
-9 -16 -34 -140 -175 -291 -328 l-126 -129 123 61 c67 34 122 66 122 73 0 12
144 261 167 289 19 22 33 71 44 153 7 55 15 76 36 99 46 48 112 89 135 84 19
-5 19 -5 2 14 -12 13 -18 40 -21 87 -5 96 -31 319 -49 414 -8 44 -31 124 -50
177 -29 81 -34 109 -34 182 0 52 5 92 13 102 7 10 33 20 61 23 47 7 48 6 37
-14 -19 -35 7 -37 40 -3 25 27 40 33 102 41 40 5 85 14 100 19 24 9 36 6 85
-21 52 -30 66 -33 159 -36 92 -4 109 -2 175 23 88 33 288 136 418 216 95 58
95 58 235 78 77 11 175 22 218 24 l78 5 -27 -23 c-14 -12 -46 -32 -70 -44 -47
-24 -59 -51 -21 -51 35 0 174 36 265 68 l83 30 -5 -27 c-9 -43 -10 -120 -3
-127 4 -4 7 -27 7 -50 0 -40 29 -188 81 -409 l22 -90 -109 -103 c-60 -57 -137
-124 -172 -151 -68 -51 -222 -132 -367 -191 -81 -33 -179 -82 -130 -64 11 4
43 15 70 24 90 31 248 101 345 152 145 77 175 95 310 181 269 173 320 208 470
324 240 187 315 259 490 474 75 92 73 89 56 89 -9 0 -64 -50 -123 -111 -306
-317 -540 -523 -733 -645 -130 -82 -172 -106 -178 -99 -3 3 24 33 59 67 36 35
101 102 144 151 43 48 81 85 84 81 3 -3 1 -8 -5 -12 -16 -10 -47 -95 -32 -86
36 22 167 142 234 214 91 98 105 114 167 189 171 204 209 245 295 316 170 142
288 293 401 516 147 292 219 572 261 1019 13 140 21 193 27 187 2 -3 -1 -54
-7 -113 -6 -60 -15 -154 -21 -209 -6 -55 -17 -138 -25 -185 -8 -47 -19 -107
-24 -135 -28 -163 -116 -474 -176 -622 -36 -91 -93 -200 -150 -291 -19 -29
-34 -61 -34 -73 0 -11 -19 -50 -43 -87 -70 -108 -79 -124 -74 -128 4 -4 28 21
115 119 17 20 32 39 32 42 0 4 21 32 45 59 29 31 54 74 47 81 -4 5 -2 5 4 2 7
-4 25 14 45 46 18 28 53 83 77 120 45 69 193 361 207 407 4 14 13 32 20 40 7
8 18 30 26 48 8 17 18 32 22 32 12 0 -12 -521 -29 -630 -19 -121 87 158 150
395 43 160 65 287 107 607 13 92 26 165 31 162 4 -3 8 796 8 1775 l0 1781
-321 0 -321 0 7 -27 c4 -16 8 -35 9 -43 0 -8 7 -19 14 -23 7 -5 10 -17 7 -28
-4 -12 -1 -21 9 -25 9 -3 16 -14 16 -23 0 -9 13 -36 29 -60 39 -58 30 -70 -31
-46 -10 4 -18 4 -18 1 0 -6 55 -30 55 -24 0 2 14 -10 30 -25 34 -32 99 -63
151 -73 20 -4 57 -17 82 -30 26 -13 59 -24 74 -24 15 0 33 -6 40 -13 7 -8 18
-12 24 -10 6 2 11 -3 11 -10 0 -20 -101 -14 -207 13 -47 12 -95 24 -107 27
-13 3 -23 9 -23 14 0 5 -9 9 -19 9 -11 0 -32 6 -48 14 -52 26 -120 56 -127 56
-3 0 -25 12 -49 27 -23 15 -58 35 -77 45 -56 28 -129 73 -150 91 -11 9 -39 26
-62 38 -24 12 -50 28 -59 36 -19 16 -89 53 -101 53 -18 0 -5 -17 32 -43 25
-18 37 -33 33 -42 -3 -9 1 -15 11 -15 9 0 16 -7 16 -15 0 -8 9 -15 20 -15 13
0 20 -7 20 -20 0 -14 7 -20 23 -20 17 0 19 -2 8 -9 -15 -9 10 -23 100 -56 20
-7 47 -24 61 -37 14 -12 36 -31 49 -42 16 -12 20 -20 12 -23 -7 -3 -13 -11
-13 -19 0 -18 -15 -18 -34 1 -9 9 -34 15 -66 15 -43 0 -53 3 -57 19 -5 18 -49
41 -80 41 -16 0 -83 -42 -83 -52 0 -5 20 -8 44 -8 27 0 48 -6 57 -16 8 -10 21
-13 36 -9 18 4 23 1 23 -15 0 -16 -5 -19 -23 -15 -15 4 -28 1 -36 -9 -11 -13
-11 -16 3 -16 12 0 16 -10 16 -40 l0 -40 40 0 40 0 0 -40 c0 -29 -4 -40 -15
-40 -9 0 -26 -7 -40 -16 -18 -12 -28 -13 -44 -4 -19 10 -21 8 -21 -20 0 -28 2
-30 20 -20 24 13 72 -6 50 -20 -28 -17 -2 -40 45 -40 38 0 45 -3 45 -20 0 -12
7 -20 16 -20 9 0 24 -10 35 -22 15 -18 20 -20 28 -10 7 11 17 8 52 -15 l43
-28 -50 -6 c-44 -5 -42 -6 27 -7 110 -3 179 -32 114 -48 -14 -3 -25 -11 -24
-18 4 -37 -11 -45 -103 -52 -39 -3 -58 -1 -58 6 0 7 -8 9 -20 5 -29 -9 -225
37 -307 72 -17 7 -37 13 -43 13 -16 0 -131 41 -145 51 -5 4 -39 17 -75 29 -72
24 -118 49 -169 93 -18 15 -43 33 -55 38 -19 8 -86 46 -185 104 -18 11 -52 32
-75 47 -22 15 -47 28 -53 28 -7 0 -13 3 -13 8 0 4 -32 25 -70 46 -39 22 -70
43 -70 48 0 4 -6 8 -13 8 -8 0 -22 9 -32 20 -10 12 -25 18 -32 16 -7 -3 -13 1
-13 9 0 8 -9 15 -20 15 -12 0 -20 7 -20 16 0 10 -6 14 -15 10 -9 -3 -15 0 -15
9 0 8 -6 15 -13 15 -8 0 -32 13 -54 29 -22 16 -49 32 -61 35 -72 23 292 -285
503 -426 262 -174 515 -308 690 -366 28 -9 52 -19 55 -23 3 -5 23 -12 45 -18
53 -13 206 -57 225 -63 8 -3 42 -13 75 -23 33 -9 80 -23 104 -31 25 -8 58 -14
73 -14 16 0 36 -7 44 -15 9 -8 12 -15 8 -15 -4 0 1 -7 12 -15 22 -17 51 -19
56 -5 2 7 17 6 43 -3 34 -12 36 -14 17 -19 -15 -4 -22 -14 -22 -31 0 -26 27
-37 90 -37 16 0 30 -7 34 -16 9 -22 8 -24 -9 -24 -8 0 -15 5 -15 10 0 6 -22
10 -50 10 -27 0 -50 5 -50 10 0 6 -9 10 -20 10 -11 0 -20 5 -20 10 0 6 -4 10
-10 10 -5 0 -10 -9 -10 -20 0 -12 -7 -20 -16 -20 -25 0 -44 -26 -44 -62 0 -28
6 -37 40 -58 22 -14 40 -28 40 -32 0 -5 9 -8 20 -8 11 0 20 -4 20 -10 0 -5 -9
-15 -20 -22 -14 -9 -20 -24 -20 -47 0 -44 -22 -60 -82 -61 l-48 0 0 -50 c0
-48 1 -50 28 -51 21 -1 18 -3 -13 -9 -22 -4 -50 -4 -63 1 -13 5 -34 9 -48 9
-13 0 -24 4 -24 8 0 9 -47 31 -125 60 -22 8 -44 18 -50 22 -5 4 -48 23 -95 40
-47 18 -89 36 -94 41 -6 5 -14 9 -18 9 -15 0 -8 -15 11 -25 74 -39 101 -57
101 -65 0 -6 9 -10 19 -10 10 0 21 -6 24 -13 2 -7 30 -26 62 -42 94 -49 110
-58 115 -65 3 -3 21 -12 40 -20 36 -14 70 -38 38 -27 -10 4 -18 2 -18 -4 0
-12 47 -32 80 -33 14 -1 24 -5 23 -11 -4 -19 -39 -16 -97 11 -43 19 -55 29
-45 36 9 6 5 7 -12 2 -15 -3 -30 -1 -33 5 -4 6 -24 18 -44 28 -20 9 -49 25
-64 35 -14 10 -31 18 -37 18 -11 0 -123 68 -242 147 -36 23 -71 43 -77 43 -7
0 -12 4 -12 9 0 8 -181 121 -194 121 -3 0 -28 16 -55 35 -26 19 -51 35 -55 35
-4 0 -28 16 -53 35 -25 19 -50 35 -54 35 -10 0 -250 184 -378 289 -36 30 -75
62 -85 70 -36 29 -5 -10 33 -43 20 -17 47 -42 61 -56 14 -14 54 -48 90 -75 36
-27 74 -58 85 -68 11 -10 35 -27 53 -38 17 -12 32 -25 32 -30 0 -5 4 -9 10 -9
5 0 18 -7 27 -15 17 -13 182 -132 275 -197 21 -16 43 -28 48 -28 6 0 10 -4 10
-9 0 -5 14 -14 30 -21 17 -7 34 -18 38 -24 4 -6 18 -18 32 -26 14 -7 82 -49
152 -92 70 -42 153 -90 185 -107 32 -16 74 -46 93 -66 32 -33 55 -49 141 -95
15 -8 36 -25 47 -37 11 -13 25 -23 31 -23 7 0 11 -8 9 -17 -2 -11 -12 -18 -25
-17 -18 0 -19 -2 -9 -20 6 -12 16 -25 21 -29 6 -6 6 -10 -2 -14 -16 -6 -17
-47 -3 -74 9 -15 22 -19 70 -19 32 0 61 -4 64 -8 2 -4 -12 -6 -32 -4 l-37 3
25 -15 c14 -9 21 -15 15 -16 -19 0 -108 30 -122 42 -8 6 -34 13 -57 14 -41 1
-105 25 -136 49 -8 7 -33 18 -55 25 -22 7 -58 21 -80 30 -22 10 -58 24 -80 30
-22 7 -50 19 -62 26 -13 8 -23 12 -23 10 0 -3 -25 6 -55 20 -31 13 -61 24 -69
24 -38 0 -259 110 -457 229 -187 111 -597 453 -695 580 -19 24 -34 41 -34 37
0 -7 -98 96 -160 169 -23 28 -66 78 -96 111 -91 102 -191 244 -269 379 -15 28
-31 52 -35 55 -3 3 -12 21 -20 40 -8 19 -17 37 -21 40 -14 11 -149 282 -149
300 0 16 -7 20 -35 20 l-35 0 -2 -122z m149 -168 c36 -69 71 -132 77 -140 7
-8 30 -44 51 -80 21 -36 51 -83 67 -105 60 -85 148 -202 177 -235 26 -29 40
-59 29 -60 -2 0 -21 -7 -43 -14 -39 -14 -40 -15 -15 -24 14 -6 33 -20 43 -31
20 -25 25 -22 -83 -47 -109 -25 -254 -72 -340 -111 -87 -40 -100 -40 -89 2 7
25 22 37 84 69 42 21 74 40 72 42 -4 4 -130 -46 -177 -70 -19 -10 -54 -39 -77
-64 -54 -57 -54 -52 -3 156 22 89 47 197 55 239 22 111 63 403 71 503 3 47 9
89 11 93 11 19 29 -5 90 -123z m2240 -172 c-3 -8 -6 -5 -6 6 -1 11 2 17 5 13
3 -3 4 -12 1 -19z m-4264 -590 c14 -57 43 -163 65 -236 27 -90 36 -135 28
-137 -6 -2 -63 -6 -126 -9 -63 -3 -127 -8 -142 -11 l-27 -7 54 158 c29 88 66
201 81 252 15 50 30 92 34 92 4 0 19 -46 33 -102z m-208 -185 c-4 -16 -7 -38
-6 -51 0 -13 -3 -21 -8 -18 -10 7 -9 37 3 74 10 32 20 27 11 -5z m4895 -178
c0 -8 -4 -15 -10 -15 -5 0 -10 7 -10 15 0 8 5 15 10 15 6 0 10 -7 10 -15z
m140 -14 c0 -6 -4 -13 -10 -16 -5 -3 -10 1 -10 9 0 9 5 16 10 16 6 0 10 -4 10
-9z m-4709 -66 c15 -42 15 -45 0 -46 -11 0 -8 -3 7 -9 12 -5 25 -18 29 -27 56
-159 163 -404 220 -507 l33 -59 -42 9 c-60 12 -326 11 -363 -2 -43 -15 -269
-1 -319 20 -22 9 -41 14 -43 12 -3 -2 36 -30 85 -63 75 -49 87 -60 76 -71 -8
-7 -19 -10 -26 -6 -6 4 -8 3 -4 -4 3 -6 -14 -25 -39 -43 -25 -18 -45 -36 -45
-40 0 -3 -10 -9 -22 -12 -25 -7 -46 2 -30 12 7 4 8 12 2 21 -8 13 -10 12 -10
-2 0 -10 -4 -18 -10 -18 -5 0 -10 5 -10 12 0 6 -3 9 -6 6 -3 -4 2 -19 12 -35
l18 -28 -21 21 c-19 19 -43 57 -43 67 0 3 16 14 35 26 47 27 46 46 -2 26 -47
-20 -59 -15 -73 33 -11 35 -10 44 16 93 15 30 69 162 119 294 l93 240 78 17
c44 9 120 17 169 18 76 2 84 4 50 11 -22 4 -61 8 -86 8 -25 1 -48 4 -52 7 -3
3 -1 19 5 35 l10 29 87 0 86 0 16 -45z m3034 -113 c-3 -3 -11 0 -18 7 -9 10
-8 11 6 5 10 -3 15 -9 12 -12z m-3462 -12 c-3 -12 -8 -19 -11 -16 -5 6 5 36
12 36 2 0 2 -9 -1 -20z m3580 -240 c123 -27 141 -37 145 -80 2 -19 -11 -95
-27 -168 -34 -151 -83 -263 -139 -321 -38 -40 -84 -55 -197 -68 l-50 -5 27 24
c107 91 114 438 12 600 l-24 38 82 0 c46 0 123 -9 171 -20z m1297 -10 c0 -5
-7 -7 -15 -4 -8 4 -15 8 -15 10 0 2 7 4 15 4 8 0 15 -4 15 -10z m33 -57 c-7
-2 -19 -2 -25 0 -7 3 -2 5 12 5 14 0 19 -2 13 -5z m12 -123 c3 -6 2 -10 -4
-10 -6 0 -8 -7 -5 -15 4 -9 0 -15 -7 -15 -11 0 -11 -3 1 -10 10 -6 11 -10 3
-10 -7 0 -13 -7 -13 -15 0 -8 -4 -15 -9 -15 -10 0 -21 87 -14 107 5 13 36 3
48 -17z m62 -52 c-3 -8 -6 -5 -6 6 -1 11 2 17 5 13 3 -3 4 -12 1 -19z m-1898
-56 c11 -32 11 -46 0 -76 -17 -47 -31 -58 -62 -51 -54 14 -76 127 -32 171 23
23 27 24 53 10 18 -9 33 -29 41 -54z m1109 -6 c175 -41 222 -48 457 -76 269
-32 242 -24 248 -73 3 -23 19 -123 36 -222 34 -201 47 -323 57 -539 4 -81 11
-149 16 -152 4 -3 8 6 8 20 0 14 4 35 9 48 5 13 16 66 25 118 9 52 22 129 30
170 l13 75 8 -90 c5 -49 9 -180 9 -290 1 -170 -4 -228 -28 -390 -51 -345 -135
-633 -249 -859 -148 -295 -290 -459 -507 -591 -108 -66 -306 -158 -275 -128 6
6 48 38 95 73 130 98 197 171 241 265 45 97 71 157 74 170 2 6 14 35 28 65 24
53 94 269 116 360 35 143 65 339 76 495 5 80 8 103 44 335 11 69 22 148 26
175 10 82 22 357 17 378 -9 33 -22 -4 -22 -63 0 -100 -31 -363 -56 -482 -102
-486 -327 -921 -658 -1276 -124 -132 -393 -301 -601 -377 -55 -19 -112 -43
-127 -51 -16 -8 -28 -13 -28 -11 0 3 41 44 91 93 178 173 380 477 463 694 13
36 35 90 49 120 39 87 153 471 186 625 52 241 91 506 126 860 14 145 20 334
10 323 -3 -2 -12 -74 -20 -159 -47 -484 -94 -827 -137 -1014 -21 -92 -24 -66
-6 68 33 245 34 954 2 1285 -4 34 -3 62 1 62 3 0 73 -15 153 -34z m713 -14
c-13 -2 -27 0 -32 5 -6 6 3 7 23 4 28 -4 29 -6 9 -9z m-5067 -154 c14 -36 26
-70 26 -75 0 -8 -51 -42 -80 -53 -8 -4 -30 -12 -48 -19 -21 -9 -32 -19 -30
-29 2 -13 25 -20 92 -29 48 -7 100 -19 115 -25 30 -15 70 -89 71 -132 0 -16 3
-26 7 -23 4 4 23 -32 44 -80 28 -68 38 -108 43 -173 7 -86 44 -368 72 -540 28
-176 93 -488 155 -750 37 -153 118 -383 179 -506 53 -107 108 -259 97 -270 -9
-9 -116 84 -172 149 -86 100 -166 205 -198 259 -45 77 -143 277 -180 368 -50
121 -168 480 -213 649 -45 169 -57 172 -19 4 84 -367 216 -741 348 -983 l74
-135 7 -165 c9 -216 31 -438 57 -575 12 -60 23 -128 25 -150 l3 -40 -20 24
c-36 43 -126 196 -182 307 -314 629 -481 1300 -562 2264 -9 102 -18 218 -22
257 l-6 73 51 77 c27 43 81 137 118 209 45 89 72 130 81 127 9 -3 11 0 7 10
-7 19 15 62 26 51 4 -5 19 -39 34 -76z m3389 32 c9 -17 20 -24 34 -22 30 4 73
-39 73 -74 0 -45 -44 -102 -88 -113 -48 -13 -244 -40 -303 -43 -66 -2 -105 17
-122 60 -14 35 -14 39 10 70 22 29 29 47 32 75 1 4 12 0 26 -9 25 -16 25 -16
23 7 -3 26 7 27 93 13 39 -6 78 9 114 44 30 29 92 25 108 -8z m-2104 -154 c25
-27 25 -28 3 -17 -23 12 -82 86 -82 103 0 5 12 -5 27 -24 15 -18 38 -46 52
-62z m-335 -99 c13 -28 16 -49 12 -82 -8 -50 -26 -70 -59 -61 -48 12 -65 122
-26 165 28 30 50 23 73 -22z m121 -116 c-8 -25 22 -51 35 -31 7 12 15 9 40
-15 25 -24 30 -36 30 -74 0 -25 -4 -52 -9 -60 -9 -14 -55 -26 -250 -67 l-115
-23 -33 20 c-18 11 -33 26 -33 32 0 8 4 7 12 -1 19 -19 33 -14 15 6 -19 21
-22 57 -6 67 5 4 9 19 7 33 -2 21 1 26 14 24 9 -1 28 9 42 23 22 22 29 24 47
14 12 -6 34 -8 50 -5 26 5 85 40 99 57 3 4 16 9 30 12 14 2 26 5 28 6 2 0 1
-7 -3 -18z m-1431 -227 c3 -26 6 -73 6 -105 0 -48 -3 -59 -19 -64 -11 -3 -33
-18 -49 -33 -30 -28 -270 -157 -278 -150 -4 4 24 41 82 108 17 19 70 88 118
152 78 105 107 137 127 138 4 0 9 -21 13 -46z m-17 -216 c-3 -8 -6 -5 -6 6 -1
11 2 17 5 13 3 -3 4 -12 1 -19z m-32 -17 c-3 -6 -11 -11 -17 -11 -6 0 -6 6 2
15 14 17 26 13 15 -4z m-526 -68 c-79 -146 -222 -358 -313 -465 l-36 -43 4 60
c15 192 28 335 34 369 l7 39 135 48 c74 26 146 52 160 57 51 21 52 13 9 -65z
m485 42 c-7 -16 -24 -21 -24 -6 0 8 7 13 27 20 1 1 0 -6 -3 -14z m117 -41 c6
-7 9 -20 7 -30 -2 -13 -8 -12 -31 10 -29 27 -52 33 -62 16 -3 -5 1 -10 10 -10
23 0 65 -30 65 -46 0 -8 4 -22 9 -32 5 -9 17 -63 26 -119 17 -101 17 -102 -5
-130 -14 -19 -37 -33 -67 -41 -43 -12 -50 -11 -90 10 -47 25 -59 43 -17 28 29
-12 84 -2 63 11 -7 4 -16 6 -21 3 -4 -3 -23 2 -43 10 -32 14 -35 14 -35 -2 0
-15 -2 -15 -10 -2 -6 10 -6 16 0 18 16 6 12 22 -5 22 -12 0 -15 14 -15 68 0
56 5 80 30 129 17 33 38 67 48 75 39 34 119 41 143 12z m-340 -113 c18 -25 25
-28 46 -20 37 14 53 11 53 -9 0 -30 -23 -51 -57 -54 -18 -1 -33 -6 -33 -11 0
-15 -52 -78 -74 -89 l-21 -11 21 24 c23 26 38 49 31 49 -2 0 -19 -13 -37 -30
-35 -31 -54 -37 -65 -20 -3 6 -11 10 -17 10 -6 0 -3 -9 7 -20 17 -19 16 -20
-12 -44 -50 -42 -164 -233 -194 -326 l-18 -55 6 55 c7 68 44 192 73 251 31 61
109 161 121 154 5 -4 9 12 9 35 0 35 7 48 45 88 44 46 46 47 61 27 16 -20 16
-20 9 3 -10 33 20 29 46 -7z m84 -120 c0 -20 -5 -24 -37 -26 -43 -2 -45 1 -22
33 21 31 59 26 59 -7z m-336 -55 c-13 -15 -29 -39 -35 -54 -9 -19 -13 -22 -13
-9 -1 20 26 66 49 84 24 18 23 7 -1 -21z m-391 -83 c-4 -60 -8 -145 -9 -190
-1 -62 -5 -83 -16 -88 -11 -3 -13 -1 -9 10 3 8 3 21 0 29 -4 10 -33 1 -124
-40 -73 -33 -133 -54 -155 -54 -24 0 -34 4 -29 11 3 6 17 9 30 6 13 -2 24 0
24 4 0 5 -6 9 -14 9 -7 0 -22 12 -32 28 -14 22 -14 24 -1 14 36 -30 83 17 70
70 -5 19 -3 21 8 11 21 -20 31 -15 18 10 -12 21 -11 21 8 5 27 -25 31 -23 38
20 10 60 14 67 27 54 16 -16 28 -15 28 3 0 8 -5 15 -11 15 -5 0 -7 5 -4 10 4
6 14 9 23 8 9 -2 16 3 14 10 -1 6 2 12 8 12 5 0 7 7 3 16 -5 14 -2 16 22 10
25 -6 27 -5 16 8 -11 13 -7 23 26 60 21 25 40 45 43 46 3 0 2 -48 -2 -107z
m711 63 c-2 -2 -26 -6 -53 -9 -30 -3 -43 -1 -35 4 13 8 97 13 88 5z m-407 -88
c-2 -29 -15 -91 -28 -137 -20 -70 -24 -104 -23 -215 1 -72 5 -142 10 -156 8
-22 8 -21 4 7 -11 77 30 37 110 -107 25 -47 47 -89 48 -95 1 -5 -14 -12 -33
-16 -19 -3 33 -7 115 -8 83 0 193 -8 245 -16 175 -29 204 -42 155 -69 -10 -6
-28 -19 -39 -28 -24 -22 1 -19 -241 -22 -145 -1 -218 -6 -265 -18 -36 -9 -82
-19 -103 -23 -23 -3 -35 -10 -31 -17 4 -6 -1 -8 -14 -4 -14 5 -28 0 -41 -13
-31 -31 -79 -28 -91 5 -14 35 -13 39 13 53 l22 12 -23 -5 c-15 -3 -26 2 -32
14 -16 30 -12 37 29 54 58 22 216 66 242 66 20 0 21 1 7 13 -17 13 -58 97 -58
118 0 7 -3 10 -6 6 -3 -3 2 -31 11 -62 9 -32 15 -58 13 -59 -11 -7 -200 -47
-204 -44 -2 3 -13 45 -24 94 -31 141 -52 481 -32 510 4 5 25 23 47 39 22 17
66 54 97 84 53 49 104 88 119 90 3 1 4 -23 1 -51z m476 33 c105 -53 137 -127
137 -316 0 -188 -39 -311 -127 -407 -54 -59 -58 -40 -5 25 24 29 59 89 78 133
31 73 33 88 35 191 1 61 -3 135 -8 164 -18 96 -73 179 -143 210 -22 10 -32 19
-22 19 10 0 35 -9 55 -19z m247 -43 c13 -59 10 -90 -12 -105 -21 -14 -22 -13
-36 34 -11 40 -12 51 0 64 7 9 10 19 6 22 -3 4 3 7 15 7 14 0 23 -8 27 -22z
m-535 -12 c0 -2 -18 -24 -41 -48 -82 -86 -130 -176 -128 -237 1 -19 6 -10 18
29 34 105 92 186 160 219 38 19 131 27 131 12 0 -5 -9 -30 -20 -55 -19 -46
-19 -47 0 -66 27 -27 26 -48 -3 -43 -33 6 -60 -28 -60 -77 0 -51 25 -80 67
-80 39 0 69 20 107 73 23 32 29 50 29 94 0 29 -7 70 -15 90 -21 49 -9 55 26
13 51 -61 77 -154 70 -250 -1 -20 -3 -22 -11 -10 -5 8 -10 28 -10 43 0 37 -22
31 -31 -9 -15 -75 -95 -174 -139 -174 -23 0 -25 12 -8 40 11 17 10 25 -2 48
-19 34 -77 44 -97 16 -17 -23 -28 -12 -14 14 14 26 14 73 1 108 -9 24 -14 26
-49 21 -22 -3 -44 0 -49 5 -28 28 -102 -113 -102 -195 l-1 -42 -20 24 c-17 21
-19 33 -14 75 9 72 33 152 61 209 31 60 144 181 144 153z m460 -56 c10 -39 7
-60 -9 -60 -9 0 -31 82 -25 92 11 18 24 6 34 -32z m-1160 -40 c0 -5 -2 -10 -4
-10 -3 0 -8 5 -11 10 -3 6 -1 10 4 10 6 0 11 -4 11 -10z m1270 -74 c0 -16 5
-58 11 -93 6 -35 8 -67 5 -70 -3 -4 -19 -6 -36 -6 -16 0 -27 -5 -23 -10 3 -5
19 -7 35 -5 35 6 46 -7 19 -21 -24 -13 -66 0 -79 26 -5 10 -13 41 -16 68 -8
54 11 124 41 158 16 17 18 17 30 1 7 -10 13 -31 13 -48z m-1356 -29 c-8 -21
-20 -22 -27 -3 -4 11 -1 13 10 9 13 -5 15 -2 9 13 -5 14 -4 16 4 8 6 -6 8 -18
4 -27z m294 -199 l-3 -33 -80 -3 c-94 -4 -172 5 -158 19 10 10 174 47 216 48
26 1 28 -2 25 -31z m1042 -8 c0 -29 -59 -164 -96 -220 -68 -102 -67 -101 -103
-94 -28 6 -45 24 -22 24 5 0 23 15 41 33 42 42 98 159 113 235 l11 60 28 -14
c15 -8 28 -19 28 -24z m-604 3 c10 -15 17 -16 42 -7 l30 12 -12 -36 c-15 -44
-5 -103 23 -133 18 -20 19 -20 25 6 7 29 29 29 35 -1 7 -38 29 -52 74 -46 39
5 41 4 27 -12 -44 -54 -200 -67 -250 -21 -24 22 -16 39 11 24 30 -16 38 0 11
21 -43 35 -61 105 -46 179 7 36 12 38 30 14z m601 -177 c-41 -80 -111 -166
-124 -152 -4 5 -2 11 5 13 6 3 12 9 12 14 0 4 20 39 44 76 24 37 52 94 62 126
l19 57 9 -31 c8 -27 5 -42 -27 -103z m84 -29 c-7 -12 -31 -35 -53 -52 -70 -50
-74 -51 -48 -9 13 21 40 68 59 104 l35 65 10 -43 c6 -30 5 -49 -3 -65z m39
-67 c0 -17 -59 -70 -77 -70 -7 0 -13 -5 -13 -10 0 -6 19 -1 41 11 23 11 45 17
49 12 5 -4 17 -42 29 -83 11 -41 36 -122 56 -179 19 -57 32 -107 29 -112 -25
-41 -302 -146 -460 -174 -135 -24 -143 -22 -171 50 -40 101 -93 259 -93 275 0
11 27 22 98 38 122 29 250 95 392 201 102 76 119 82 120 41z m803 -16 c-8 -21
-43 -18 -43 5 0 11 6 21 13 24 17 6 37 -12 30 -29z m-1532 -186 c0 -10 2 -10
6 0 2 6 15 12 29 12 27 0 47 -32 68 -112 8 -29 38 -114 66 -188 67 -172 68
-180 41 -180 -12 0 -24 7 -27 15 -4 8 -10 15 -15 15 -4 0 -6 -7 -3 -15 5 -11
-1 -15 -18 -15 -21 0 -30 11 -55 68 -44 96 -136 380 -129 397 7 18 36 20 37 3z
m4712 -22 c-10 -13 -22 -23 -27 -23 -5 1 -11 -11 -12 -27 -2 -16 -13 -39 -25
-52 -12 -13 -18 -24 -13 -24 5 0 4 -4 -2 -8 -6 -4 -30 -35 -53 -70 -23 -34
-55 -77 -71 -95 l-28 -33 -124 -2 -123 -2 35 19 c19 10 50 22 67 26 18 3 36
11 40 17 4 8 0 9 -10 5 -46 -19 -50 -18 -22 3 59 46 59 46 52 28 -4 -12 -2
-15 8 -11 8 3 13 8 11 12 -7 10 16 34 69 72 70 50 71 50 73 22 2 -22 0 -24
-13 -13 -8 7 -15 8 -15 2 0 -5 7 -15 15 -22 8 -7 15 -20 16 -29 0 -13 1 -14 6
-1 3 8 11 22 18 30 17 21 26 50 16 50 -5 0 -12 -10 -15 -22 -7 -22 -7 -22 -15
-3 -13 31 -1 50 74 114 74 64 98 77 68 37z m-4772 -53 c9 -27 37 -106 63 -177
25 -71 44 -132 41 -135 -9 -9 -172 49 -200 71 -43 34 -127 230 -104 243 5 4
17 8 26 10 10 3 41 11 68 19 82 24 89 22 106 -31z m5169 -123 c0 -5 -5 -10
-11 -10 -5 0 -7 5 -4 10 3 6 8 10 11 10 2 0 4 -4 4 -10z m-30 -33 c0 -6 -21
-25 -47 -40 l-48 -29 27 26 c15 14 31 26 36 26 6 0 12 7 16 15 7 18 16 20 16
2z m33 -24 c3 -5 8 -30 11 -58 5 -49 5 -49 -5 -10 -5 22 -14 44 -19 49 -6 6
-10 14 -10 18 0 10 17 10 23 1z m-73 -48 c0 -8 -4 -15 -10 -15 -5 0 -7 7 -4
15 4 8 8 15 10 15 2 0 4 -7 4 -15z m-5302 -20 c67 -5 101 -28 102 -69 0 -11 7
-42 15 -70 15 -52 85 -404 85 -429 0 -14 -157 -83 -167 -74 -2 3 0 39 4 81 5
42 6 76 2 76 -4 0 -10 -30 -14 -67 -9 -99 -9 -97 -28 -101 -10 -2 -59 17 -110
41 l-92 46 -53 113 -53 113 33 30 c18 17 77 68 131 113 53 46 97 86 97 88 0
15 -52 -24 -221 -166 l-47 -39 -4 157 c-2 86 -3 160 -1 164 4 7 178 3 321 -7z
m1987 -32 c10 -27 37 -88 61 -137 24 -48 44 -95 44 -103 0 -7 7 -28 16 -46 11
-24 -3 -12 -56 43 -99 105 -121 140 -115 187 17 121 23 128 50 56z m3235 32
c-7 -8 -17 -15 -23 -15 -6 0 -2 7 9 15 25 19 30 19 14 0z m-2633 -86 c37 -25
136 -87 218 -138 l150 -94 0 -93 0 -94 -35 -6 c-63 -12 -87 -30 -104 -81 -25
-72 -20 -135 20 -261 57 -182 84 -316 100 -501 l15 -174 -38 -31 c-90 -73 -94
-79 -106 -141 l-12 -60 -65 -32 c-71 -36 -258 -99 -320 -109 -47 -8 -47 -9
-20 94 34 135 88 481 104 662 28 321 29 471 7 790 -26 369 -26 346 -2 329 11
-8 51 -35 88 -60z m2653 64 c-8 -3 -22 -12 -31 -20 -9 -7 -24 -11 -33 -7 -22
8 -21 27 2 20 9 -3 24 -1 32 4 8 5 22 9 30 9 13 -1 13 -1 0 -6z m57 1 c-3 -3
-12 -4 -19 -1 -8 3 -5 6 6 6 11 1 17 -2 13 -5z m-2891 -86 c7 -52 -2 -118 -16
-118 -6 0 -10 40 -10 92 0 98 14 112 26 26z m2766 51 c15 -8 26 -8 43 1 12 6
37 10 56 7 31 -3 30 -4 -9 -5 -44 -2 -51 -22 -8 -22 13 0 48 -9 78 -19 l55
-19 -5 23 c-2 12 0 25 5 28 4 3 9 -10 11 -29 2 -33 1 -34 -25 -28 -16 4 -35
11 -44 15 -15 8 -176 39 -203 39 -6 0 -4 5 4 10 19 12 17 12 42 -1z m185 -25
c-3 -3 -12 -4 -19 -1 -8 3 -5 6 6 6 11 1 17 -2 13 -5z m-5149 -196 c47 -88 82
-184 98 -271 l7 -39 -44 4 -44 4 -13 54 c-7 30 -20 89 -27 130 -22 114 -37
184 -42 198 -3 6 0 12 5 12 6 0 33 -42 60 -92z m2209 50 c-3 -8 -6 -5 -6 6 -1
11 2 17 5 13 3 -3 4 -12 1 -19z m2460 6 c-3 -3 -12 -4 -19 -1 -8 3 -5 6 6 6
11 1 17 -2 13 -5z m-26 -84 c5 0 10 8 10 18 1 16 2 16 6 0 2 -10 9 -18 14 -18
5 0 9 -18 9 -40 0 -36 3 -40 24 -40 14 0 28 -4 31 -10 3 -5 19 -10 35 -10 16
0 32 5 35 10 3 6 13 10 22 10 9 0 22 8 29 18 12 15 13 10 13 -38 0 -38 -3 -49
-8 -35 -8 19 -11 17 -43 -17 -19 -21 -42 -38 -51 -38 -27 0 -20 -17 9 -24 20
-5 33 -1 50 15 17 16 24 18 24 8 0 -11 2 -12 9 -1 7 11 9 10 15 -3 8 -23 26
-9 26 21 0 27 15 33 17 7 1 -10 8 -45 17 -78 l15 -60 -45 -65 c-24 -36 -79
-105 -122 -154 -77 -88 -77 -88 -84 -60 -71 275 -89 371 -83 444 3 41 6 107 7
145 1 39 3 53 5 33 2 -21 8 -38 14 -38z m-2464 48 c-3 -8 -6 -5 -6 6 -1 11 2
17 5 13 3 -3 4 -12 1 -19z m2724 -108 c5 0 9 5 9 12 0 6 3 8 6 5 4 -4 2 -13
-4 -20 -7 -8 -10 -16 -8 -18 2 -2 -2 -10 -10 -17 -12 -11 -14 -6 -13 30 1 24
3 35 6 26 2 -10 9 -18 14 -18z m107 23 c-10 -2 -26 -2 -35 0 -10 3 -2 5 17 5
19 0 27 -2 18 -5z m-18 -17 c0 -2 -7 -6 -15 -10 -8 -3 -15 -1 -15 4 0 6 7 10
15 10 8 0 15 -2 15 -4z m215 -6 c-3 -5 -11 -10 -16 -10 -6 0 -7 5 -4 10 3 6
11 10 16 10 6 0 7 -4 4 -10z m-208 -132 c11 -39 10 -45 -9 -63 l-20 -20 6 54
c5 40 4 56 -6 62 -10 7 -10 9 2 9 10 0 20 -16 27 -42z m21 -4 c-3 -14 -5 -12
-10 9 -3 19 -2 25 4 19 6 -6 8 -18 6 -28z m-3755 -216 c13 -29 13 -45 1 -128
-7 -52 -13 -99 -14 -104 0 -4 11 2 25 15 13 13 25 30 25 37 0 6 5 12 10 12 6
0 10 6 10 14 0 33 20 22 66 -36 74 -92 84 -109 74 -127 -5 -9 -13 -67 -19
-128 -10 -110 -34 -218 -52 -237 -5 -6 -9 -17 -9 -25 0 -33 -111 -209 -172
-272 -107 -111 -194 -163 -335 -198 -81 -21 -213 -29 -213 -13 0 5 26 16 58
26 183 58 290 163 351 349 60 180 139 571 157 779 4 43 10 75 14 73 4 -3 14
-19 23 -37z m200 -35 c4 -18 3 -33 -2 -33 -10 0 -21 34 -21 65 0 28 16 6 23
-32z"/>
<path d="M4405 6405 c-27 -7 -61 -18 -75 -24 l-25 -11 25 4 c43 8 154 36 159
41 8 9 -34 4 -84 -10z"/>
<path d="M4253 6360 c-35 -14 -27 -20 10 -8 17 6 34 13 36 14 8 7 -24 3 -46
-6z"/>
<path d="M6720 5310 c0 -5 7 -10 15 -10 8 0 15 5 15 10 0 6 -7 10 -15 10 -8 0
-15 -4 -15 -10z"/>
<path d="M6555 3713 c-4 -10 -9 -72 -11 -138 -4 -140 10 -103 22 58 7 94 4
116 -11 80z"/>
<path d="M1630 5071 c0 -5 6 -14 14 -20 12 -10 13 -8 9 8 -5 21 -23 30 -23 12z"/>
<path d="M1676 4984 c-8 -21 -8 -34 2 -34 4 0 8 11 8 25 2 29 -1 32 -10 9z"/>
<path d="M1575 4959 c-4 -6 -5 -12 -2 -15 2 -3 7 2 10 11 7 17 1 20 -8 4z"/>
<path d="M1601 4944 c0 -11 3 -14 6 -6 3 7 2 16 -1 19 -3 4 -6 -2 -5 -13z"/>
<path d="M1800 4666 c0 -8 5 -18 10 -21 6 -3 10 1 10 9 0 8 -4 18 -10 21 -5 3
-10 -1 -10 -9z"/>
<path d="M1352 3980 c0 -14 2 -19 5 -12 2 6 2 18 0 25 -3 6 -5 1 -5 -13z"/>
<path d="M973 3990 c0 -25 2 -35 4 -22 2 12 2 32 0 45 -2 12 -4 2 -4 -23z"/>
<path d="M333 3843 c-15 -6 -17 -33 -3 -33 6 0 10 8 11 18 0 14 2 14 9 -3 7
-16 9 -17 9 -3 1 20 -9 27 -26 21z"/>
<path d="M332 3733 c-2 -58 -5 -73 -17 -73 -8 0 -15 -9 -15 -20 0 -11 5 -20
10 -20 6 0 10 5 10 11 0 5 4 8 9 5 13 -8 17 30 10 104 l-6 65 -1 -72z"/>
<path d="M302 3761 c-10 -6 -10 -10 3 -21 13 -11 15 -9 15 9 0 24 0 24 -18 12z"/>
<path d="M247 3694 c-10 -11 3 -24 24 -24 23 0 25 15 3 24 -19 7 -19 7 -27 0z"/>
<path d="M244 3604 c-7 -3 -10 -14 -7 -24 3 -11 0 -20 -6 -20 -6 0 -11 -7 -11
-15 0 -20 5 -19 36 10 43 40 36 69 -12 49z"/>
<path d="M5421 2764 c-13 -13 -22 -26 -20 -29 8 -7 52 32 48 43 -2 6 -14 0
-28 -14z"/>
<path d="M5302 2600 c7 -10 14 -18 15 -16 6 6 -9 36 -18 36 -5 0 -4 -9 3 -20z"/>
<path d="M5203 2563 c9 -2 23 -2 30 0 6 3 -1 5 -18 5 -16 0 -22 -2 -12 -5z"/>
<path d="M5276 2545 c-11 -8 -15 -15 -9 -15 6 0 16 7 23 15 16 19 11 19 -14 0z"/>
<path d="M5188 2533 c12 -2 30 -2 40 0 9 3 -1 5 -23 4 -22 0 -30 -2 -17 -4z"/>
<path d="M432 2161 c-46 -89 -79 -167 -76 -173 8 -13 167 309 161 325 -1 5
-40 -63 -85 -152z"/>
<path d="M582 2105 c0 -16 2 -22 5 -12 2 9 2 23 0 30 -3 6 -5 -1 -5 -18z"/>
<path d="M5396 2202 c-4 -18 -5 -36 -2 -39 11 -12 17 5 14 39 l-3 33 -9 -33z"/>
<path d="M5731 2014 c0 -11 3 -14 6 -6 3 7 2 16 -1 19 -3 4 -6 -2 -5 -13z"/>
<path d="M6110 7354 c0 -8 32 -33 43 -34 4 0 7 9 7 20 0 15 -7 20 -25 20 -14
0 -25 -3 -25 -6z"/>
<path d="M6340 7352 c0 -12 34 -42 47 -42 6 0 13 -7 16 -14 3 -8 19 -22 36
-30 16 -9 42 -27 57 -41 15 -14 35 -25 45 -25 11 0 19 -3 19 -8 0 -4 17 -16
38 -27 20 -11 46 -28 56 -37 11 -10 29 -17 42 -16 20 2 19 5 -17 38 -21 19
-39 43 -39 52 0 9 -4 20 -10 23 -5 3 -10 17 -10 31 0 13 -4 24 -9 24 -5 0 -12
18 -16 40 l-7 40 -124 0 c-68 0 -124 -4 -124 -8z"/>
<path d="M4300 7094 c0 -3 7 -12 15 -20 16 -17 18 -14 9 10 -6 15 -24 23 -24
10z"/>
<path d="M4340 7037 c0 -14 24 -57 32 -57 13 0 10 10 -12 37 -11 14 -20 23
-20 20z"/>
<path d="M4391 6945 c0 -11 4 -27 9 -35 9 -13 10 -13 9 0 0 8 -4 24 -9 35 l-9
20 0 -20z"/>
<path d="M4450 6837 c0 -7 7 -22 15 -33 13 -17 14 -16 4 14 -11 33 -19 41 -19
19z"/>
<path d="M4495 6760 c3 -5 8 -10 11 -10 2 0 4 5 4 10 0 6 -5 10 -11 10 -5 0
-7 -4 -4 -10z"/>
<path d="M6317 6620 c3 -11 9 -17 14 -14 14 8 10 34 -5 34 -9 0 -12 -7 -9 -20z"/>
<path d="M895 6589 c-4 -6 -5 -12 -2 -15 2 -3 7 2 10 11 7 17 1 20 -8 4z"/>
<path d="M855 6534 c-8 -21 -26 -61 -40 -88 -42 -78 -23 -62 29 25 35 58 45
84 37 92 -7 7 -15 0 -26 -29z"/>
<path d="M2190 6415 c0 -5 5 -17 10 -25 5 -8 10 -10 10 -5 0 6 -5 17 -10 25
-5 8 -10 11 -10 5z"/>
<path d="M2391 5984 c0 -11 3 -14 6 -6 3 7 2 16 -1 19 -3 4 -6 -2 -5 -13z"/>
<path d="M2410 5919 c0 -8 16 -42 51 -109 5 -8 19 -36 31 -62 13 -27 26 -48
30 -48 7 0 5 5 -60 143 -39 82 -52 101 -52 76z"/>
<path d="M5215 5796 c32 -14 41 -13 30 3 -3 6 -18 11 -33 11 l-27 -1 30 -13z"/>
<path d="M3190 5789 c0 -24 53 -173 98 -274 80 -183 318 -645 376 -732 16 -24
26 -49 22 -58 -3 -9 -2 -14 3 -11 9 6 26 -22 22 -38 -1 -5 2 -12 6 -15 5 -3
30 -37 57 -74 92 -131 250 -318 301 -357 11 -8 1 8 -21 35 -125 153 -368 526
-422 645 -22 50 -24 66 -21 175 2 81 -1 127 -9 142 -7 12 -12 29 -12 38 0 29
-22 11 -37 -30 -8 -22 -20 -52 -25 -67 -6 -16 -14 -28 -18 -28 -8 0 -139 234
-176 315 -14 33 -53 125 -85 205 -32 80 -58 138 -59 129z"/>
<path d="M5095 5790 c-27 -7 -27 -8 -5 -8 14 0 39 4 55 8 27 7 27 8 5 8 -14 0
-38 -4 -55 -8z"/>
<path d="M4988 5763 c6 -2 18 -2 25 0 6 3 1 5 -13 5 -14 0 -19 -2 -12 -5z"/>
<path d="M2550 5651 c0 -14 46 -99 66 -122 8 -8 14 -21 14 -28 0 -6 9 -21 20
-33 11 -12 20 -31 20 -42 0 -16 2 -18 9 -7 6 9 -2 31 -25 67 -19 29 -34 55
-34 57 0 3 -16 31 -35 63 -19 32 -35 52 -35 45z"/>
<path d="M6695 5610 c-3 -5 1 -10 9 -10 9 0 16 5 16 10 0 6 -4 10 -9 10 -6 0
-13 -4 -16 -10z"/>
<path d="M2690 5411 c0 -5 5 -13 10 -16 6 -3 10 -15 10 -26 0 -10 4 -19 9 -19
6 0 6 12 -1 30 -10 30 -28 50 -28 31z"/>
<path d="M6515 5230 c3 -5 13 -10 21 -10 8 0 12 5 9 10 -3 6 -13 10 -21 10 -8
0 -12 -4 -9 -10z"/>
<path d="M3400 5221 c0 -6 4 -13 10 -16 6 -3 7 1 4 9 -7 18 -14 21 -14 7z"/>
<path d="M3420 5179 c0 -8 18 -45 39 -84 21 -38 56 -102 77 -142 21 -40 40
-71 42 -69 3 3 -143 292 -154 305 -2 2 -4 -2 -4 -10z"/>
<path d="M3620 4810 c6 -11 13 -20 16 -20 2 0 0 9 -6 20 -6 11 -13 20 -16 20
-2 0 0 -9 6 -20z"/>
<path d="M4112 3233 c-24 -8 -41 -17 -39 -19 4 -5 97 26 97 32 0 6 -11 4 -58
-13z"/>
<path d="M3333 3143 c9 -2 25 -2 35 0 9 3 1 5 -18 5 -19 0 -27 -2 -17 -5z"/>
<path d="M3418 3133 c12 -2 30 -2 40 0 9 3 -1 5 -23 4 -22 0 -30 -2 -17 -4z"/>
<path d="M7342 2833 c-1 -7 -9 -90 -17 -185 -18 -195 -47 -407 -69 -500 -143
-607 -221 -845 -351 -1068 -83 -143 -203 -285 -334 -393 -18 -15 -31 -30 -29
-33 12 -11 212 176 297 276 25 30 52 61 59 69 37 39 97 130 133 201 23 44 46
81 52 81 60 6 84 11 111 25 17 9 57 20 90 24 32 5 60 11 62 13 2 2 3 341 1
753 -1 412 -3 744 -5 737z"/>
<path d="M7012 2398 c-6 -24 -21 -86 -32 -138 -34 -159 -108 -431 -134 -495
-25 -64 -60 -144 -79 -185 -7 -14 -20 -34 -29 -44 -10 -11 -18 -24 -18 -28 0
-5 -16 -32 -35 -61 -19 -28 -35 -55 -35 -59 0 -3 -9 -17 -20 -30 -56 -67 -91
-121 -74 -114 14 5 12 1 -6 -17 -14 -13 -28 -22 -33 -19 -4 2 -12 -10 -18 -27
-6 -17 -17 -31 -25 -31 -8 0 -14 -6 -14 -13 0 -14 -202 -209 -325 -314 -137
-116 -386 -285 -517 -350 -54 -26 -65 -28 -70 -11 -5 14 -138 -109 -138 -127
0 -8 39 7 96 36 52 27 100 47 105 44 5 -4 9 -16 9 -27 0 -23 -78 -277 -90
-293 -4 -5 -10 -22 -14 -37 -3 -14 -9 -33 -12 -42 -6 -15 10 -16 162 -14 l168
3 11 50 c6 28 17 60 23 72 13 24 72 257 72 285 0 15 -9 18 -59 18 -104 0 -90
37 22 60 75 16 166 51 208 80 43 32 31 34 -27 5 -27 -13 -60 -26 -74 -27 -23
-3 -25 0 -23 35 3 45 45 127 74 145 11 7 69 51 129 98 99 77 149 122 370 333
41 39 76 67 78 62 2 -5 -26 -66 -62 -136 -37 -70 -66 -130 -66 -133 0 -3 15
14 33 38 17 24 43 57 56 74 33 44 128 246 190 404 50 126 164 543 210 762 18
90 35 210 28 210 -1 0 -8 -19 -15 -42z"/>
<path d="M6437 2380 c-10 -16 -16 -30 -13 -30 2 0 14 14 26 30 12 17 18 30 13
30 -5 0 -17 -13 -26 -30z"/>
<path d="M3490 1868 c1 -29 7 -78 15 -108 l13 -55 0 108 c0 85 -3 107 -14 107
-10 0 -14 -14 -14 -52z"/>
<path d="M6110 1354 c-120 -92 -291 -186 -501 -278 -355 -153 -694 -216 -1102
-203 -157 5 -353 24 -437 43 -34 8 -10 19 56 28 82 10 425 99 454 118 17 11
14 10 -125 -28 -185 -50 -350 -75 -503 -75 -78 1 -163 6 -188 12 -78 20 -58 3
28 -24 306 -94 1025 -127 1355 -61 39 7 83 18 98 24 40 15 75 13 75 -6 0 -12
8 -9 34 14 18 16 67 42 107 57 187 71 563 284 679 384 48 41 25 38 -30 -5z"/>
<path d="M2706 675 c-27 -120 -95 -234 -260 -430 -27 -33 -57 -68 -65 -78 -13
-16 -13 -17 1 -12 8 3 62 55 119 115 68 72 106 105 111 97 5 -8 8 -7 8 5 0 9
4 18 9 20 11 4 74 189 91 268 7 31 10 65 8 75 -2 11 -12 -16 -22 -60z"/>
<path d="M3451 704 c0 -11 3 -14 6 -6 3 7 2 16 -1 19 -3 4 -6 -2 -5 -13z"/>
<path d="M3846 542 c-11 -26 -24 -53 -30 -61 -6 -7 -16 -27 -22 -45 -6 -17
-15 -39 -18 -48 -6 -13 2 -22 34 -38 22 -11 38 -25 35 -30 -7 -11 51 -22 80
-16 11 3 24 5 28 5 5 1 5 6 2 11 -4 6 -14 10 -23 9 -44 -4 -52 1 -52 31 0 17
10 51 21 76 l22 45 -24 50 c-12 28 -26 52 -29 54 -3 2 -14 -18 -24 -43z"/>
<path d="M6370 560 c-8 -5 -10 -10 -5 -10 6 0 17 5 25 10 8 5 11 10 5 10 -5 0
-17 -5 -25 -10z"/>
<path d="M1828 282 c-32 -20 -35 -28 -10 -34 10 -3 26 6 40 24 26 32 13 36
-30 10z"/>
<path d="M3510 254 c-52 -19 -114 -41 -137 -49 -24 -8 -73 -29 -109 -47 l-67
-33 59 -12 c65 -13 154 -7 154 11 0 27 64 86 132 121 113 57 107 59 -32 9z"/>
<path d="M4130 218 c0 -11 68 -10 74 1 3 5 -12 8 -34 7 -22 0 -40 -4 -40 -8z"/>
<path d="M1595 89 c-5 -8 -15 -24 -23 -36 -17 -27 -2 -30 26 -6 14 13 18 24
13 37 -6 16 -9 17 -16 5z"/>
</g>
</svg>
