<?xml version="1.0" standalone="no"?>
<!DOCTYPE svg PUBLIC "-//W3C//DTD SVG 20010904//EN"
 "http://www.w3.org/TR/2001/REC-SVG-20010904/DTD/svg10.dtd">
<svg version="1.0" xmlns="http://www.w3.org/2000/svg"
 width="720.000000pt" height="720.000000pt" viewBox="0 0 720.000000 720.000000"
 preserveAspectRatio="xMidYMid meet">

<g transform="translate(0.000000,720.000000) scale(0.100000,-0.100000)"
fill="#000000" stroke="none">
<path d="M0 3600 l0 -3600 193 0 193 0 26 52 c69 141 323 368 536 478 51 27
56 34 54 80 0 19 5 139 13 265 9 127 17 273 20 325 3 52 12 169 20 260 9 91
20 217 25 280 16 187 19 209 30 230 6 10 9 23 8 27 -1 4 3 18 10 29 6 12 14
42 16 65 2 24 15 67 27 94 12 28 25 68 28 90 7 57 3 306 -7 398 -6 66 -5 77 7
72 8 -3 48 6 88 21 87 32 85 22 47 215 -14 72 -24 133 -22 135 10 9 45 -10 53
-29 8 -17 20 -23 51 -25 25 -2 47 2 55 10 8 8 46 19 85 26 39 6 106 25 147 41
l76 29 37 -67 c44 -80 140 -227 154 -236 34 -21 -24 -428 -86 -607 -36 -102
-58 -140 -100 -178 -45 -39 -125 -78 -186 -89 l-43 -8 28 -11 c44 -18 141 -14
209 9 111 37 214 116 273 209 21 34 35 48 35 36 1 -58 -82 -282 -137 -370 -54
-87 -94 -127 -160 -158 -35 -16 -94 -54 -131 -84 -73 -59 -129 -81 -229 -91
-35 -3 -63 -9 -63 -12 0 -8 80 -37 128 -46 17 -4 32 -9 32 -12 0 -3 -11 -26
-23 -52 -27 -52 -72 -182 -69 -194 1 -4 -12 -28 -29 -54 -21 -31 -28 -48 -20
-52 8 -6 8 -16 0 -40 -6 -17 -9 -34 -7 -36 2 -3 14 27 27 65 29 91 63 119 256
217 257 130 364 199 484 313 29 28 55 50 57 48 1 -2 8 -35 14 -72 9 -55 8 -71
-2 -77 -10 -7 -9 -9 4 -9 24 0 38 -89 15 -101 -36 -20 -125 -100 -160 -143
l-38 -46 28 -10 c15 -6 34 -13 41 -15 7 -3 29 14 49 36 46 50 93 85 102 73 3
-5 13 -15 22 -22 14 -11 16 -9 11 13 -2 14 -9 22 -15 18 -6 -3 -7 -1 -3 6 4 6
-4 73 -18 149 -14 75 -42 225 -61 332 -32 174 -45 228 -45 191 0 -7 12 -76 27
-152 l26 -140 -39 -40 c-116 -121 -264 -219 -534 -354 -121 -61 -124 -58 -30
31 64 60 138 118 185 143 37 20 38 21 10 16 -56 -11 -252 -18 -299 -11 -51 8
-63 26 -17 26 40 0 188 61 264 110 149 93 279 285 340 499 l24 84 7 -53 c4
-29 9 -50 12 -47 3 3 1 37 -5 76 -6 38 -12 136 -13 218 l-1 148 -7 -110 c-7
-115 -23 -166 -75 -243 -45 -66 -126 -141 -181 -167 -66 -31 -165 -57 -202
-53 -23 3 -15 9 51 40 81 39 137 88 167 148 52 105 120 421 133 623 2 34 4 37
19 25 15 -11 16 -22 8 -93 -6 -44 -12 -96 -15 -115 l-6 -35 27 45 c15 25 30
47 34 50 4 3 10 14 14 24 10 28 24 9 29 -39 2 -22 4 2 4 53 0 51 5 98 11 104
14 14 50 1 57 -21 3 -11 14 -21 23 -23 10 -3 32 -32 49 -64 34 -64 54 -161 73
-347 10 -97 61 -327 89 -400 6 -16 12 -70 13 -120 l1 -92 6 75 c4 41 2 206 -4
365 -13 406 -11 519 19 774 14 123 26 237 26 253 0 23 -11 40 -53 76 -257 228
-343 366 -407 657 -11 50 -37 284 -53 481 -12 145 -12 151 5 140 10 -6 16 -17
13 -24 -3 -7 -1 -10 4 -7 5 3 13 0 17 -6 8 -13 94 -69 107 -69 5 0 -4 13 -19
30 -33 35 -74 108 -74 132 0 9 21 33 46 53 51 38 67 44 58 20 -4 -8 -3 -31 1
-51 6 -34 7 -35 24 -20 21 19 57 21 67 4 7 -11 -40 -61 -66 -70 -9 -3 -7 -14
7 -42 14 -30 15 -40 5 -43 -7 -3 -17 -14 -24 -26 -10 -21 -10 -21 8 -5 10 9
33 20 49 24 17 4 39 13 50 20 11 8 29 14 41 14 11 0 24 3 28 8 4 4 22 13 39
19 30 12 29 12 -18 6 -27 -3 -62 -12 -77 -19 -34 -17 -35 -17 -41 0 -4 10 -1
13 9 9 8 -3 14 1 14 10 0 9 5 19 12 23 7 5 9 2 4 -7 -4 -8 -1 -6 7 4 9 10 28
17 50 17 24 0 46 9 67 27 29 24 33 25 42 9 6 -11 16 -15 28 -11 13 4 22 -1 29
-14 9 -16 8 -20 -7 -24 -9 -3 -2 -5 16 -6 32 -1 32 0 34 47 1 26 1 66 1 90 -1
45 10 52 43 27 45 -34 34 -11 -21 46 -57 58 -58 61 -30 55 52 -10 -57 42 -122
59 -72 19 -176 19 -236 1 -25 -7 -48 -11 -51 -8 -3 2 -12 0 -19 -7 -16 -12
-118 -18 -136 -7 -6 4 -11 3 -11 -2 0 -4 18 -19 41 -31 l41 -23 -44 -39 c-23
-21 -46 -39 -49 -39 -6 0 -34 109 -44 175 -6 35 0 55 50 158 31 64 60 117 65
117 4 0 50 21 101 46 52 25 83 42 69 38 -14 -3 -56 -22 -93 -40 l-69 -34 24
28 c26 32 81 67 148 93 25 10 37 18 27 19 -9 0 -53 -18 -97 -40 -44 -22 -81
-40 -84 -40 -2 0 18 51 46 113 27 61 58 132 68 157 10 25 34 83 53 130 l35 85
12 -45 c59 -231 156 -433 290 -610 63 -82 150 -177 150 -164 0 5 4 4 8 -2 24
-36 252 -195 252 -176 0 4 -21 33 -48 63 -47 53 -113 134 -142 174 -8 11 12
-5 46 -35 185 -169 510 -335 769 -393 l70 -16 -35 31 c-63 55 -211 202 -240
239 l-29 35 65 32 c76 38 88 39 79 10 -6 -18 -4 -20 11 -13 41 17 61 16 84 -4
l25 -21 -25 -20 c-30 -24 -53 -25 -74 -4 -15 14 -16 13 -16 -7 0 -35 32 -129
44 -129 14 0 39 16 35 21 -7 8 29 50 39 47 6 -2 18 6 26 17 15 19 15 19 16 1
0 -11 3 -16 7 -13 3 4 12 2 19 -4 15 -13 70 -3 81 14 5 8 22 10 48 6 22 -3 35
-7 28 -8 -7 0 -10 -8 -7 -16 4 -9 11 -15 18 -14 6 1 19 1 29 0 16 -1 16 -3 5
-15 -10 -9 -48 -13 -142 -14 -71 -1 -131 -3 -134 -6 -6 -6 107 -10 170 -7 26
2 43 -4 57 -18 16 -16 21 -17 21 -6 0 25 89 8 124 -24 27 -24 28 -24 17 -3
-11 20 -9 22 13 22 14 0 41 9 59 19 71 40 82 46 95 59 7 6 17 12 21 12 5 0 28
19 52 41 59 56 86 72 104 65 9 -3 13 -2 10 3 -3 5 -1 12 4 15 21 13 21 -40 1
-453 -17 -327 -57 -574 -124 -766 -72 -208 -68 -203 -252 -304 -163 -90 -646
-311 -686 -314 -22 -2 -21 3 -3 -93 8 -44 24 -142 35 -219 42 -289 158 -820
175 -803 3 2 -4 41 -15 87 -24 100 -25 164 -4 250 24 96 57 155 110 195 69 53
74 46 75 -103 0 -69 5 -153 10 -186 5 -33 13 -178 18 -322 5 -144 12 -267 16
-272 4 -7 14 -6 30 1 32 15 32 27 0 20 -25 -4 -25 -4 -27 79 -2 135 -6 126 93
219 49 47 89 87 89 90 0 3 -28 -20 -62 -52 -35 -32 -66 -58 -71 -58 -4 0 -19
7 -32 16 -22 14 -25 24 -25 75 l0 58 48 6 c26 4 81 15 122 25 41 10 77 16 79
14 3 -2 -8 -17 -22 -32 -49 -51 -28 -47 26 5 38 38 79 64 157 99 173 78 375
197 411 241 16 19 19 21 -88 -49 -192 -125 -494 -244 -695 -273 l-46 -7 -7 76
c-4 42 -6 78 -4 80 2 1 52 28 111 60 120 63 396 246 530 349 106 82 228 196
300 280 74 86 29 51 -162 -124 -204 -188 -290 -256 -415 -329 l-40 -23 35 39
c19 21 52 56 73 77 20 21 37 42 37 47 0 5 4 11 9 15 10 6 8 -16 -5 -50 -6 -15
0 -12 22 10 17 17 48 46 70 65 37 34 138 142 178 192 11 12 50 55 87 94 64 69
144 181 231 323 92 152 287 582 314 694 3 15 8 26 11 24 6 -6 -43 -268 -67
-361 -50 -190 -122 -365 -196 -477 -29 -45 -54 -87 -54 -92 0 -6 -18 -35 -41
-64 -22 -30 -39 -56 -37 -59 3 -2 31 25 64 59 89 97 114 126 114 138 0 5 5 7
12 3 7 -5 9 -2 6 7 -3 8 -2 23 3 34 7 20 8 20 8 0 1 -16 6 -13 25 15 13 19 22
38 19 42 -2 5 1 16 7 25 10 16 11 16 6 -2 -11 -35 25 17 63 93 19 37 40 74 47
82 7 8 20 29 29 45 16 29 16 26 10 -80 -7 -110 -8 -129 -20 -217 -3 -27 -4
-48 -1 -48 11 0 46 79 85 193 37 109 81 295 97 414 3 29 10 50 15 47 23 -14
-6 -575 -32 -626 -5 -9 -9 -33 -9 -54 0 -83 -70 -368 -145 -589 -29 -86 -86
-230 -97 -242 -6 -7 -7 -13 -2 -13 4 0 -2 -10 -14 -23 -12 -13 -19 -27 -15
-30 3 -4 1 -7 -6 -7 -7 0 -9 -5 -6 -10 3 -6 1 -10 -4 -10 -6 0 -10 -4 -9 -9 4
-13 -49 -78 -129 -158 -124 -123 -277 -191 -448 -198 l-100 -5 70 19 c87 23
108 32 165 70 59 40 45 39 -46 -4 -85 -40 -134 -54 -134 -36 0 40 32 80 106
130 43 30 81 57 84 60 3 3 23 19 44 35 22 16 62 50 90 74 28 24 64 55 79 69
21 18 32 21 45 14 10 -6 12 -11 5 -11 -7 0 -13 -4 -13 -10 0 -5 -20 -46 -44
-90 -25 -44 -41 -78 -36 -75 16 10 116 160 140 210 73 158 93 206 119 293 16
54 41 133 55 177 33 106 66 244 65 275 -1 23 -2 23 -9 -5 -5 -16 -15 -58 -24
-92 -39 -154 -128 -403 -148 -411 -4 -2 -8 -8 -8 -13 0 -5 -7 -17 -15 -27 -43
-47 -123 -161 -118 -166 9 -8 -28 -47 -38 -40 -5 3 -9 -3 -9 -13 0 -15 -2 -16
-10 -3 -9 15 -12 11 -14 -20 -1 -8 -9 -14 -19 -14 -10 1 -17 -5 -17 -17 0 -10
-4 -19 -8 -19 -5 0 -22 -12 -38 -26 -72 -63 -196 -156 -269 -200 -44 -27 -87
-53 -96 -59 -9 -5 -45 -25 -80 -44 l-64 -33 50 43 c61 54 176 158 190 173 17
17 -15 -6 -100 -75 -170 -137 -317 -302 -416 -468 l-44 -74 -6 34 c-5 26 -7
28 -8 9 0 -14 2 -42 6 -63 l6 -38 49 93 c77 147 176 267 260 317 l37 22 -16
-48 c-8 -26 -35 -102 -60 -168 -184 -492 -353 -1092 -353 -1256 0 -16 -5 -38
-12 -48 -10 -16 -4 -34 33 -109 l44 -91 243 0 243 -1 -5 33 c-3 17 -10 59 -16
92 -27 166 -42 453 -36 690 9 344 37 548 117 847 l21 78 60 0 c158 0 332 68
447 175 78 73 177 194 211 258 36 69 73 80 237 75 129 -5 201 -21 285 -64 55
-28 181 -120 211 -153 79 -89 165 -261 206 -411 49 -181 66 -366 76 -827 6
-275 6 -282 -14 -302 -12 -12 -34 -21 -51 -21 -41 0 -79 -20 -140 -75 -28 -25
-56 -45 -62 -45 -6 0 -41 29 -77 64 -104 99 -206 142 -366 153 -151 10 -252
-27 -421 -152 -19 -14 -24 -12 -70 17 -60 38 -151 68 -210 68 l-43 0 5 -32
c10 -56 12 -58 56 -59 24 0 70 -10 103 -22 52 -19 60 -26 63 -50 3 -22 -7 -41
-38 -78 -23 -27 -38 -53 -35 -59 12 -19 52 -10 80 20 34 35 57 38 84 9 18 -20
20 -20 46 -3 19 13 25 23 20 38 -22 79 -21 82 81 139 118 66 214 85 345 67 87
-12 165 -46 205 -91 10 -12 28 -25 39 -29 12 -4 21 -18 22 -31 2 -22 -6 -27
-87 -53 -88 -28 -90 -30 -73 -48 15 -17 15 -20 3 -28 -19 -12 -30 -12 -30 0 0
5 -7 7 -15 4 -10 -4 -13 -14 -9 -29 9 -35 -2 -45 -31 -32 -14 7 -25 15 -25 20
0 4 -7 7 -15 7 -8 0 -15 5 -15 10 0 18 -25 10 -41 -13 -23 -31 -32 -64 -19
-72 14 -9 13 -52 -2 -58 -10 -4 -9 -8 2 -16 8 -5 79 -10 162 -10 l148 -1 0 28
c0 20 -8 32 -31 45 -31 17 -31 19 -26 68 8 65 27 81 89 76 42 -4 47 -2 53 20
8 33 44 47 92 37 32 -8 41 -16 61 -57 18 -37 27 -47 47 -47 18 0 31 -10 45
-32 25 -42 25 -84 0 -105 -31 -27 -24 -33 36 -33 l56 0 -5 58 c-6 63 9 92 47
92 26 0 152 -102 161 -130 9 -27 55 -28 55 -1 0 11 -14 77 -31 148 -17 70 -42
180 -55 243 -14 63 -29 131 -34 150 -32 136 -83 385 -100 486 -24 147 -61 460
-62 524 -1 8 -6 21 -12 29 -8 11 -8 13 0 8 11 -6 9 31 -3 63 -4 8 -5 20 -3 25
6 22 -2 222 -10 260 -5 22 -5 56 -1 75 l8 35 17 -40 c18 -42 81 -191 100 -238
17 -42 27 -32 22 21 -10 87 -25 187 -35 232 -11 50 -40 298 -41 345 -1 70 10
304 16 355 4 30 12 58 18 62 7 5 3 8 -9 8 -18 1 -18 2 4 14 23 13 23 14 5 19
-10 2 0 5 23 6 42 1 51 -4 58 -36 23 -104 152 -489 161 -480 2 2 -15 57 -37
123 -22 65 -48 148 -59 184 -10 36 -27 95 -38 133 -23 76 -29 71 68 58 54 -8
97 3 263 68 15 6 27 7 27 4 0 -4 11 8 25 27 14 19 25 29 25 22 0 -6 16 -22 35
-34 19 -13 35 -29 35 -35 0 -7 5 -13 10 -13 6 0 10 -9 10 -20 0 -16 7 -20 30
-20 25 0 30 -4 30 -25 0 -22 4 -25 35 -25 20 0 47 -7 60 -16 24 -15 25 -15 37
10 6 16 17 25 25 22 7 -3 13 1 13 8 0 7 15 17 32 22 18 6 34 17 36 26 4 19
-26 58 -44 58 -7 0 -14 7 -18 15 -3 8 -17 15 -31 15 -15 0 -25 6 -25 15 0 8
-9 19 -20 25 -11 6 -20 18 -20 27 0 8 -11 47 -25 85 -29 81 -34 181 -10 215 8
12 25 54 38 95 19 60 27 74 46 76 16 3 24 -2 28 -17 3 -12 9 -21 14 -21 5 0 9
-38 9 -83 0 -46 3 -87 8 -91 4 -4 14 -33 23 -64 9 -31 22 -56 28 -54 6 1 11
-4 11 -10 1 -24 49 -68 80 -74 17 -4 33 -11 36 -15 7 -12 44 -11 44 1 0 6 7
10 15 10 8 0 15 -6 15 -14 0 -9 7 -12 20 -9 18 5 20 14 20 89 0 59 -4 84 -12
84 -9 0 -9 3 0 12 9 9 12 102 12 355 0 336 0 343 -20 343 -24 0 -25 -8 -4 -31
23 -25 10 -39 -26 -29 -17 5 -31 8 -33 8 -9 -4 -75 27 -71 34 3 4 -4 8 -15 8
-11 0 -23 5 -26 10 -3 6 -17 10 -31 10 -13 0 -32 4 -42 9 -9 6 -46 24 -81 41
-67 33 -137 78 -166 106 -12 12 -13 19 -5 24 8 5 7 9 -5 13 -9 4 -13 3 -10 -3
9 -15 -1 -12 -37 11 -22 14 -26 18 -11 14 13 -3 32 0 45 8 33 22 68 30 68 18
0 -6 -8 -11 -17 -11 -10 0 -25 -5 -33 -10 -11 -8 -8 -9 13 -4 17 4 27 2 27 -6
0 -6 -4 -9 -9 -6 -5 3 -8 -5 -7 -18 1 -32 24 -15 28 21 4 35 24 40 23 7 0 -15
7 -29 15 -32 13 -5 13 -3 1 12 -16 20 -10 29 13 20 11 -4 15 -13 11 -22 -3 -9
-3 -13 1 -10 4 4 16 2 27 -3 15 -8 16 -13 7 -19 -8 -5 0 -7 19 -5 17 1 34 5
38 9 10 10 25 7 18 -4 -3 -5 2 -10 12 -10 11 0 23 -4 29 -9 14 -13 155 -59
189 -61 71 -5 65 -31 65 290 l0 290 -40 26 c-22 15 -40 31 -40 36 0 9 -86 98
-95 98 -9 0 -33 22 -78 70 -23 24 -54 56 -68 70 -14 14 -34 37 -43 52 -10 15
-22 25 -27 22 -5 -3 -8 -2 -7 3 2 4 -7 19 -19 33 -12 14 -29 34 -37 45 -14 17
-17 18 -26 5 -8 -12 -10 -11 -10 8 0 12 -9 30 -19 39 -11 9 -18 20 -15 25 9
13 -4 9 -20 -8 -15 -14 -16 -14 -16 4 0 29 -24 44 -55 36 -26 -6 -27 -5 -21
20 5 22 3 26 -14 26 -12 0 -19 4 -16 8 3 5 -8 22 -24 37 -22 21 -30 24 -30 13
0 -9 7 -21 15 -28 8 -7 12 -16 9 -21 -10 -16 -24 -9 -24 11 0 17 -7 20 -40 20
l-40 0 0 -56 c0 -59 18 -144 30 -144 4 0 11 10 15 23 7 21 7 21 12 2 3 -10 0
-21 -6 -23 -6 -2 -11 -21 -11 -42 0 -29 -4 -39 -20 -43 -25 -6 -28 -68 -4 -92
11 -11 16 -34 17 -75 0 -33 4 -60 9 -60 16 0 -3 -21 -28 -30 -29 -12 -31 -30
-4 -37 12 -3 27 -18 36 -34 8 -16 21 -29 29 -29 8 0 15 -8 15 -18 0 -9 13 -23
30 -30 17 -8 45 -28 64 -45 54 -51 89 -77 124 -94 17 -9 32 -20 32 -24 0 -3
14 -12 30 -19 17 -7 30 -18 30 -26 0 -17 -9 -14 -137 47 -57 27 -107 49 -113
49 -5 0 -10 4 -10 8 0 9 -78 37 -92 34 -5 -1 -8 5 -8 14 0 8 -14 35 -30 60
-25 35 -29 48 -20 63 13 25 13 31 -1 31 -5 0 -8 -4 -5 -8 2 -4 1 -13 -3 -20
-4 -7 -16 5 -31 33 -19 35 -22 47 -12 57 9 9 15 8 27 -8 15 -19 16 -19 13 1
-2 16 2 20 22 18 25 -1 27 4 21 71 -1 4 -8 6 -16 3 -8 -4 -17 -2 -20 3 -4 6
-1 10 4 10 20 0 11 15 -16 28 -18 8 -30 9 -37 2 -7 -7 -3 -10 12 -10 12 0 22
-5 22 -11 0 -14 -51 -3 -65 15 -5 7 -15 11 -21 9 -26 -9 -284 131 -410 223
-108 79 -313 273 -364 344 -18 25 -19 30 -6 30 9 0 24 4 34 9 9 6 62 24 117
42 86 28 163 62 200 89 12 9 71 29 190 66 50 15 106 37 125 49 19 11 55 29 80
38 l45 17 27 -32 c15 -18 32 -46 38 -63 18 -46 27 -60 39 -58 10 3 15 -10 12
-29 0 -5 4 -8 9 -8 6 0 10 -7 10 -15 0 -8 3 -15 8 -15 13 -1 79 -64 138 -135
32 -38 76 -90 99 -114 22 -25 69 -77 104 -115 98 -109 383 -396 403 -407 17
-9 18 26 17 783 0 749 -1 792 -17 768 -72 -104 -129 -157 -157 -146 -25 9 -17
40 25 98 22 31 64 106 95 168 l55 113 0 328 0 329 -501 0 -502 0 7 -52 c3 -29
9 -138 12 -243 7 -187 -3 -327 -27 -402 -17 -54 -49 -38 -49 24 0 32 -23 56
-39 40 -8 -8 -11 -6 -11 9 0 15 -2 16 -10 4 -8 -12 -10 -12 -16 3 -3 9 -3 25
1 35 7 16 8 15 15 -3 8 -19 9 -19 9 3 1 15 -5 22 -18 22 -11 0 -22 6 -25 13
-3 6 -4 1 -1 -13 2 -14 0 -31 -4 -39 -16 -26 -26 11 -28 109 -1 52 -7 122 -13
155 -20 109 -20 192 0 180 4 -3 11 2 14 11 4 10 14 14 26 11 15 -4 20 0 20 14
0 10 -4 19 -10 19 -5 0 -16 21 -23 48 l-14 47 -71 3 -72 3 11 -28 c7 -15 15
-46 19 -68 4 -22 17 -87 29 -144 13 -62 22 -150 24 -219 2 -116 2 -117 -21
-118 -36 -2 -70 18 -77 46 -4 14 -11 54 -15 90 -16 119 -30 182 -45 197 -8 8
-15 27 -15 41 0 15 -13 55 -30 88 -16 33 -34 73 -39 87 -8 21 -17 27 -41 27
-16 0 -30 -4 -30 -9 0 -11 45 -123 66 -165 15 -29 52 -185 59 -247 2 -20 5
-40 6 -45 3 -18 -3 -49 -7 -37 -3 7 -11 10 -19 7 -7 -3 -20 5 -29 18 -10 14
-16 17 -16 8 0 -8 35 -68 78 -132 133 -202 365 -575 390 -625 18 -38 11 -51
-21 -35 -12 6 -45 18 -74 26 -140 40 -354 167 -546 326 -48 39 -127 118 -127
126 0 11 -67 113 -89 134 -13 13 -14 13 -8 -3 4 -11 10 -31 13 -45 4 -20 3
-23 -5 -12 -5 8 -13 11 -17 7 -7 -7 81 -103 183 -200 29 -27 55 -57 58 -67 3
-10 15 -20 26 -23 20 -5 20 -6 -1 -27 -12 -12 -24 -19 -28 -16 -10 10 -32 -54
-32 -93 1 -46 21 -71 80 -98 8 -4 26 -18 40 -31 14 -13 41 -34 60 -47 19 -12
44 -32 54 -44 l19 -21 -74 -1 c-41 -1 -83 -3 -94 -4 -11 -1 -31 -2 -45 -3 -21
-2 -22 -4 -10 -13 12 -8 10 -9 -7 -4 -13 3 -23 2 -23 -3 0 -5 26 -12 58 -16
63 -7 105 -25 62 -27 -23 0 -23 -1 -5 -9 28 -12 9 -12 -45 1 -76 17 -182 28
-203 20 -18 -7 -17 -9 12 -14 37 -8 37 -28 0 -38 l-24 -7 25 -8 25 -8 -25 -7
c-24 -7 -24 -7 -2 -8 19 -1 22 -7 22 -40 0 -22 5 -43 10 -46 6 -4 10 -24 8
-46 -2 -34 -5 -39 -27 -40 -15 -1 -37 -5 -51 -9 -15 -5 5 -6 50 -4 67 3 70 2
31 -6 -62 -13 -75 -21 -23 -14 27 4 42 2 42 -5 0 -20 -248 -14 -358 10 -104
22 -208 53 -251 75 -14 8 -31 14 -38 14 -6 0 -24 7 -40 15 -15 8 -75 37 -133
64 -58 28 -115 59 -127 71 -12 11 -27 20 -33 20 -5 0 -10 3 -10 8 0 4 -13 13
-28 20 -24 10 -111 69 -147 100 -6 5 -35 26 -65 47 -30 21 -66 49 -80 62 -13
12 -28 23 -32 23 -3 0 -13 6 -20 13 -27 27 -92 71 -84 58 28 -45 283 -279 345
-316 9 -5 50 -35 91 -65 170 -126 272 -181 493 -264 132 -51 357 -114 462
-131 64 -11 71 -14 72 -36 2 -29 29 -83 48 -99 11 -9 12 -16 5 -25 -7 -8 -3
-15 13 -24 21 -11 22 -19 24 -124 1 -88 5 -114 17 -123 22 -16 20 -37 -5 -52
-17 -11 -19 -16 -7 -29 11 -15 11 -16 -5 -10 -10 4 -21 7 -23 7 -2 0 -4 9 -4
20 0 11 5 20 10 20 6 0 10 9 10 20 0 33 -19 22 -26 -15 -3 -19 -12 -35 -19
-35 -15 0 -146 49 -160 59 -5 5 -23 11 -39 15 -26 6 -185 78 -241 108 -11 6
-44 24 -73 40 -29 16 -58 28 -63 26 -13 -4 61 -58 79 -58 7 0 12 -4 12 -8 0
-5 16 -17 35 -28 19 -10 35 -22 35 -26 0 -5 8 -8 18 -8 10 0 22 -4 27 -9 14
-14 142 -81 195 -102 25 -10 38 -18 30 -19 -8 0 26 -15 75 -32 50 -17 92 -34
95 -39 3 -4 32 -12 65 -17 l60 -10 -55 0 c-30 -1 -75 3 -100 9 -25 5 -52 10
-60 10 -8 1 -34 9 -57 20 -24 10 -48 19 -54 19 -8 0 -7 6 2 17 12 15 12 16 -6
9 -11 -4 -32 -1 -50 7 -16 8 -51 24 -77 36 -27 11 -48 25 -48 31 0 5 -3 9 -7
8 -5 -2 -24 7 -43 18 -19 12 -62 38 -94 58 -39 24 -63 33 -69 27 -7 -7 -1 -14
17 -22 16 -8 25 -18 22 -26 -4 -9 -1 -11 5 -7 7 4 19 -2 28 -13 18 -23 190
-138 303 -203 43 -25 78 -48 78 -52 0 -14 -30 -9 -81 14 -36 15 -47 24 -37 30
8 5 2 6 -16 2 -22 -5 -27 -4 -21 6 5 9 4 11 -3 6 -6 -4 -33 2 -59 13 -57 25
-135 43 -127 30 3 -5 2 -9 -2 -9 -17 0 -181 75 -218 99 -21 14 -104 60 -183
101 -200 104 -369 227 -537 390 -170 165 -279 287 -270 302 4 7 3 8 -4 4 -18
-11 -193 233 -252 353 -92 185 -100 214 -100 358 0 69 -2 124 -5 121 -3 -3
-12 -75 -20 -159 -28 -291 -38 -340 -172 -796 -67 -231 -84 -300 -79 -328 9
-44 22 -38 28 12 6 46 66 270 80 297 10 18 21 19 227 14 119 -2 194 -1 166 3
-27 4 -114 8 -192 8 -119 1 -143 3 -143 16 0 8 12 17 28 21 50 11 47 14 -10
11 -32 -2 -58 -3 -58 -1 0 1 9 30 20 65 29 96 86 325 100 404 22 125 23 126
49 59 49 -129 176 -330 313 -496 l39 -47 -43 -3 -43 -3 45 -26 c25 -15 59 -30
76 -33 21 -5 74 -48 165 -134 74 -70 173 -158 222 -195 83 -65 87 -71 87 -107
0 -43 7 -40 -88 -24 -19 3 -40 0 -48 -7 -8 -6 -14 -8 -14 -4 0 4 8 14 18 21
16 13 16 14 -2 8 -15 -6 -17 -3 -11 15 6 19 4 21 -17 16 -50 -13 -175 -9 -234
8 -106 28 -179 31 -291 8 -109 -21 -136 -32 -225 -93 -59 -40 -71 -52 -40 -41
9 3 0 -12 -22 -35 -21 -22 -36 -44 -33 -49 3 -5 -4 -9 -15 -9 -36 0 -117 130
-118 188 0 29 -30 97 -42 98 -5 0 -8 -9 -8 -19 0 -37 -18 -31 -53 16 -56 76
-132 195 -156 241 -12 23 -24 42 -27 42 -8 0 68 -138 115 -210 44 -66 48 -75
29 -64 -8 4 -10 3 -5 -2 5 -5 13 -9 18 -9 11 0 130 -183 135 -208 2 -11 6 -22
10 -26 4 -3 4 2 1 12 -11 31 1 18 46 -50 25 -38 65 -88 89 -113 45 -47 175
-162 218 -193 l25 -18 -30 6 c-107 23 -427 167 -565 255 -141 91 -347 271
-333 293 3 5 1 7 -4 4 -11 -7 -97 86 -121 128 -6 11 -12 15 -12 9 0 -7 16 -34
35 -60 19 -27 51 -75 72 -106 21 -32 63 -91 94 -130 30 -40 64 -86 75 -103 40
-63 -83 52 -211 196 -80 90 -187 260 -247 394 -91 205 -135 400 -140 623 -1
57 -6 106 -10 108 -7 4 -14 -225 -11 -301 1 -11 -4 -36 -12 -55 -9 -24 -10
-41 -4 -53 7 -11 6 -24 -2 -39 -7 -13 -12 -25 -11 -28 4 -11 -81 -232 -94
-245 -8 -7 -14 -23 -14 -34 0 -12 -4 -21 -8 -21 -5 0 -9 -6 -9 -12 0 -7 -12
-39 -26 -71 -15 -32 -27 -60 -27 -62 0 -7 -158 -328 -172 -349 -7 -11 -44 -68
-83 -127 -38 -59 -83 -131 -100 -159 -16 -28 -35 -57 -41 -64 -6 -7 -18 -25
-27 -41 -8 -17 -24 -39 -34 -50 -10 -11 -36 -43 -58 -70 -21 -28 -42 -52 -45
-55 -3 -3 -41 -47 -85 -97 -43 -51 -80 -93 -81 -93 -1 0 21 42 50 93 60 106
143 288 182 397 14 41 32 89 39 105 24 56 54 140 70 195 9 30 25 79 37 108 11
29 18 55 16 58 -6 6 -61 -122 -88 -206 -12 -36 -28 -75 -36 -87 -8 -12 -14
-29 -14 -38 0 -26 -50 -97 -104 -148 -50 -46 -230 -187 -240 -187 -3 0 -25
-13 -49 -30 -66 -44 -66 -37 -1 25 32 30 60 55 61 55 5 0 71 75 104 117 16 21
36 46 44 55 37 44 127 180 122 184 -2 3 -22 -17 -43 -43 -59 -71 -114 -132
-159 -174 -22 -20 -67 -63 -101 -95 -33 -33 -75 -70 -94 -84 -18 -14 -52 -42
-75 -62 -23 -21 -46 -38 -50 -38 -5 0 -23 -12 -42 -26 -19 -14 -37 -23 -40
-20 -8 7 109 131 120 128 5 -1 6 2 2 8 -4 6 11 32 33 58 21 26 47 59 57 75 12
19 21 24 30 17 8 -7 12 -5 12 5 0 8 -4 12 -9 9 -17 -10 -7 14 20 52 40 55 154
276 186 359 17 42 45 90 72 120 24 28 44 56 44 63 0 6 3 12 8 12 4 0 19 21 35
48 42 71 50 84 75 111 12 14 22 31 22 38 0 6 4 13 9 15 12 4 91 152 91 169 -1
9 -4 8 -11 -4 -8 -14 -14 -16 -25 -6 -10 8 -14 8 -14 0 0 -6 5 -11 10 -11 6 0
10 -4 10 -9 0 -6 -9 -9 -20 -8 -13 1 -19 6 -15 16 4 11 3 12 -10 1 -8 -7 -12
-17 -8 -24 3 -6 3 -8 -1 -4 -5 4 -47 -24 -94 -63 -87 -70 -236 -153 -327 -182
-51 -17 -285 -51 -292 -43 -3 2 41 28 97 57 87 44 118 67 207 155 69 68 103
108 100 118 -4 10 -1 13 7 10 19 -7 59 52 53 77 -3 10 -1 17 4 13 5 -3 9 3 10
13 0 16 1 16 10 -2 7 -15 8 -12 3 13 -6 36 2 41 23 15 13 -16 13 -16 3 5 -19
38 -26 33 -118 -80 -63 -77 -118 -125 -214 -184 -104 -64 -117 -54 -18 14 47
31 114 85 150 120 69 67 70 66 -17 46 -24 -6 -20 1 33 52 69 67 109 114 167
196 22 32 43 56 45 53 3 -2 -10 -34 -27 -70 -37 -76 -35 -98 2 -33 35 60 70
155 118 325 55 193 70 228 230 528 125 233 173 304 295 434 l96 101 -1061 0
-1061 0 0 -3600z m6030 2724 c0 -2 -7 -4 -15 -4 -8 0 -15 4 -15 10 0 5 7 7 15
4 8 -4 15 -8 15 -10z m-593 -610 c-3 -3 -12 -4 -19 -1 -8 3 -5 6 6 6 11 1 17
-2 13 -5z m30 -20 c-3 -3 -12 -4 -19 -1 -8 3 -5 6 6 6 11 1 17 -2 13 -5z m173
-104 c0 -5 -4 -10 -10 -10 -5 0 -10 5 -10 10 0 6 5 10 10 10 6 0 10 -4 10 -10z
m-149 -88 c-7 -2 -18 1 -23 6 -8 8 -4 9 13 5 13 -4 18 -8 10 -11z m-3962 -57
c-45 -42 -46 -45 -31 -67 13 -19 13 -21 1 -11 -9 8 -20 9 -29 3 -20 -13 -40
-12 -40 1 0 6 7 9 14 6 9 -4 13 -1 10 7 -3 7 7 18 20 26 14 7 23 17 20 22 -3
4 2 8 11 8 9 0 13 5 10 10 -3 6 1 10 10 10 8 0 18 7 21 15 4 8 11 15 18 15 6
0 -10 -20 -35 -45z m4000 41 c-2 -2 -20 -6 -39 -10 -25 -4 -31 -3 -20 4 14 9
69 15 59 6z m-4059 -186 c0 -5 -6 -10 -14 -10 -15 0 -27 -23 -22 -42 1 -7 1
-10 -1 -5 -8 13 -23 8 -23 -8 0 -8 -5 -15 -11 -15 -14 0 -5 25 24 60 22 29 47
39 47 20z m-82 -115 c-6 -14 -13 -23 -15 -21 -5 5 15 46 22 46 3 0 -1 -11 -7
-25z m2797 -195 c8 -13 -5 -13 -25 0 -13 8 -13 10 2 10 9 0 20 -4 23 -10z m70
-38 c-3 -3 -11 0 -18 7 -9 10 -8 11 6 5 10 -3 15 -9 12 -12z m42 -8 c-3 -3
-12 -4 -19 -1 -8 3 -5 6 6 6 11 1 17 -2 13 -5z m-219 -65 c96 -44 96 -45 36
-136 -41 -64 -74 -87 -121 -85 -72 3 -74 5 -51 72 14 43 19 79 16 130 -4 82
-10 81 120 19z m-2194 -129 l13 -71 -42 -24 c-23 -14 -54 -25 -69 -25 -24 0
-26 -2 -12 -15 9 -9 33 -15 61 -15 61 0 81 -12 89 -55 4 -19 9 -135 11 -257 7
-412 53 -688 142 -863 36 -71 57 -135 43 -135 -15 0 -87 59 -131 108 -110 122
-202 375 -240 657 -15 111 -28 133 -16 27 25 -223 91 -472 160 -595 28 -50 36
-74 35 -113 -1 -102 33 -333 68 -451 26 -91 -115 110 -191 270 -87 186 -127
331 -162 596 -20 151 -23 692 -4 715 6 7 8 15 5 18 -3 3 17 39 44 80 26 41 66
105 87 141 33 57 41 65 54 54 14 -10 14 -10 3 5 -12 14 -11 22 5 48 l18 31 7
-30 c5 -16 14 -61 22 -101z m1840 114 c32 -32 8 -125 -29 -111 -33 13 -41 79
-13 115 14 16 23 15 42 -4z m941 -125 c248 -62 219 -49 227 -105 4 -27 10
-137 14 -244 4 -107 10 -201 14 -208 4 -8 18 32 33 90 l26 103 0 -135 c1 -184
-34 -391 -106 -629 -31 -104 -79 -211 -93 -211 -6 0 -8 -5 -5 -10 9 -15 -70
-134 -127 -191 -26 -26 -68 -61 -93 -78 -54 -37 -165 -94 -171 -89 -2 3 19 21
47 42 69 53 117 112 131 161 6 22 15 45 18 50 6 9 41 121 70 225 17 58 50 261
50 301 0 20 11 95 25 166 43 217 68 409 51 392 -2 -2 -10 -42 -16 -89 -25
-185 -52 -292 -117 -450 -112 -274 -252 -480 -403 -594 -69 -52 -294 -176
-319 -176 -6 0 18 34 53 76 35 42 86 116 112 163 26 47 51 88 54 91 13 10 99
249 149 413 28 92 66 241 85 330 40 185 98 518 92 524 -5 5 -19 -59 -46 -211
-30 -169 -90 -460 -97 -466 -3 -3 -3 18 1 45 21 159 26 212 36 397 6 112 12
230 15 263 2 33 4 79 5 102 l0 43 83 -30 c45 -17 136 -44 202 -61z m1806 25
c-5 -16 -10 -21 -10 -12 -1 18 10 51 15 45 2 -1 -1 -16 -5 -33z m-848 19 c-13
-2 -23 -9 -23 -14 0 -5 -7 -9 -15 -9 -8 0 -15 4 -15 9 0 11 25 19 55 18 16 0
16 -1 -2 -4z m106 -39 c2 -2 -8 -6 -23 -10 -15 -3 -41 0 -63 9 l-38 15 60 -5
c33 -3 62 -7 64 -9z m211 -36 c0 -4 17 -9 38 -9 l37 -1 -40 -9 c-56 -11 -87
-11 -80 1 4 6 -13 11 -42 11 l-48 2 40 6 c58 9 95 9 95 -1z m375 -45 c11 -21
37 -65 59 -98 l39 -60 -13 -74 c-20 -126 -16 -125 -105 -27 -44 47 -83 92 -87
100 -10 18 38 167 59 184 24 17 26 16 48 -25z m165 17 c0 -11 -4 -20 -10 -20
-5 0 -10 9 -10 20 0 11 5 20 10 20 6 0 10 -9 10 -20z m-4120 -6 c19 -22 1 -88
-24 -92 -35 -7 -48 46 -20 86 18 26 27 27 44 6z m4730 -5 c0 -6 -4 -7 -10 -4
-5 3 -10 11 -10 16 0 6 5 7 10 4 6 -3 10 -11 10 -16z m-875 -22 c-7 -25 -7
-25 -35 -9 -32 18 -29 28 10 34 32 5 32 5 25 -25z m-247 -42 c42 -26 81 -64
140 -139 45 -56 122 -143 171 -191 49 -49 87 -93 84 -99 -3 -5 -1 -6 5 -2 7 4
38 -15 73 -44 88 -73 193 -142 277 -180 39 -18 78 -40 84 -48 11 -13 6 -14
-47 -7 -118 17 -111 20 -168 -75 -88 -149 -118 -190 -153 -213 -43 -28 -53
-50 -13 -30 29 15 30 14 89 -45 32 -33 61 -55 64 -48 3 7 8 6 15 -4 8 -12 11
-12 17 4 4 11 1 22 -7 28 -10 7 -8 8 9 3 16 -5 30 1 52 23 16 17 32 27 35 22
3 -4 -17 -27 -44 -51 -149 -133 -158 -136 -198 -88 -16 18 -38 43 -50 55 -12
12 -19 25 -15 30 4 4 3 5 -3 2 -5 -3 -26 8 -45 24 -21 18 -30 32 -23 35 41 15
137 89 164 125 42 56 100 183 106 227 4 36 4 36 -64 66 -70 31 -192 107 -253
158 -88 73 -169 161 -175 188 -4 16 -20 41 -37 56 -35 32 -41 39 -67 73 l-19
25 -7 -26 c-4 -16 -17 -29 -37 -37 -26 -10 -35 -8 -59 9 -36 25 -32 31 -94
-166 -3 -11 3 -3 15 18 11 20 23 37 25 37 7 0 -11 -43 -42 -101 -44 -82 -50
-90 -59 -87 -12 4 -8 13 21 56 14 20 25 43 25 52 0 8 -7 2 -15 -14 -22 -42
-114 -152 -184 -221 -34 -33 -61 -64 -61 -69 0 -16 109 -142 183 -213 77 -73
156 -126 246 -164 l54 -23 -33 -27 c-18 -16 -38 -25 -44 -22 -6 3 -8 3 -4 -2
4 -4 -5 -22 -20 -40 -15 -17 -36 -43 -47 -58 l-21 -26 -107 53 c-58 30 -121
66 -138 80 -17 14 -35 26 -40 26 -21 0 -319 306 -318 325 0 11 3 14 6 8 7 -18
23 -16 23 2 0 8 6 12 14 9 7 -3 16 1 19 9 5 13 -1 13 -40 1 -68 -20 -71 -7 -6
27 154 81 306 258 464 539 29 52 68 118 86 145 31 48 35 50 83 53 44 2 59 -2
108 -33z m-4380 -182 c-2 -9 -10 -18 -18 -20 -12 -4 -13 -3 -1 5 7 5 10 15 7
21 -4 6 -2 11 4 11 6 0 10 -8 8 -17z m4389 -9 c-3 -3 -12 -4 -19 -1 -8 3 -5 6
6 6 11 1 17 -2 13 -5z m73 -40 c24 -24 38 -98 21 -108 -7 -4 -9 -1 -5 8 4 11
-3 10 -33 -5 -63 -33 -133 -6 -133 52 0 15 -5 29 -10 31 -6 2 -5 11 4 23 20
30 127 29 156 -1z m-4513 -19 c-7 -13 -14 -20 -15 -14 -5 14 6 39 17 39 5 0 4
-11 -2 -25z m5073 5 c0 -5 -5 -10 -11 -10 -5 0 -7 5 -4 10 3 6 8 10 11 10 2 0
4 -4 4 -10z m-5047 -25 c-7 -21 -13 -19 -13 6 0 11 4 18 10 14 5 -3 7 -12 3
-20z m15 -39 c-8 -7 -25 -16 -38 -20 -17 -5 -21 -4 -12 2 11 8 11 10 -2 15
-10 4 -16 -1 -18 -15 -2 -12 -10 -24 -18 -28 -8 -4 -25 -12 -37 -18 -13 -7
-30 -12 -39 -12 -13 0 -14 3 -4 15 7 8 25 15 41 15 33 0 57 33 40 54 -8 10 -7
17 4 26 9 7 15 8 15 2 0 -6 -6 -13 -12 -15 -13 -5 16 -11 40 -8 6 1 12 -3 12
-9 0 -22 30 18 31 42 2 20 3 19 6 -5 2 -15 -2 -33 -9 -41z m4299 12 c-3 -8 -6
-5 -6 6 -1 11 2 17 5 13 3 -3 4 -12 1 -19z m1300 6 c-3 -3 -12 -4 -19 -1 -8 3
-5 6 6 6 11 1 17 -2 13 -5z m-5697 -24 c0 -5 -4 -10 -10 -10 -5 0 -10 5 -10
10 0 6 5 10 10 10 6 0 10 -4 10 -10z m4972 -13 c20 -10 44 -15 55 -12 10 3 5
-1 -12 -9 -34 -17 -20 -21 20 -6 24 9 25 8 15 -10 -13 -24 -3 -26 21 -4 17 16
20 15 48 -15 16 -17 32 -27 35 -22 4 5 0 12 -6 14 -8 4 -7 6 4 6 9 1 24 -2 33
-6 15 -5 14 -8 -6 -19 -23 -13 -22 -13 11 -8 l35 5 -35 -19 c-33 -19 -60 -19
-60 -1 0 5 -5 9 -11 9 -5 0 -7 -4 -4 -10 3 -5 2 -10 -4 -10 -5 0 -12 4 -15 9
-3 5 -21 12 -39 15 -35 7 -102 40 -123 61 -8 7 -19 15 -26 17 -10 4 -10 8 1
21 7 9 16 15 20 14 3 -2 22 -11 43 -20z m-4982 -13 c0 -2 -7 -4 -15 -4 -8 0
-15 4 -15 10 0 5 7 7 15 4 8 -4 15 -8 15 -10z m126 -90 c-7 -28 -84 -74 -124
-74 -16 0 -36 -8 -45 -18 -9 -10 -39 -25 -67 -32 -64 -17 -78 -32 -60 -65 15
-27 8 -74 -21 -153 -12 -33 -21 -90 -24 -155 -4 -73 -2 -94 5 -73 5 17 12 64
14 105 3 42 14 100 25 128 17 48 74 133 93 141 5 2 8 11 8 20 0 10 9 32 20 50
22 36 62 44 78 16 6 -11 17 -15 31 -11 16 4 21 1 21 -14 0 -11 -7 -19 -17 -20
-11 0 -13 -3 -5 -6 20 -8 14 -39 -9 -39 -14 0 -19 5 -16 17 4 15 1 15 -29 -3
-38 -22 -46 -34 -11 -18 21 10 21 10 3 -4 -13 -11 -25 -12 -43 -5 -16 6 -22 6
-18 -1 3 -6 -9 -29 -28 -53 -53 -67 -81 -116 -63 -113 9 1 19 6 23 11 4 4 2 5
-6 0 -9 -5 -12 -4 -10 4 3 7 9 13 14 13 6 0 23 11 38 24 28 23 36 26 77 26 31
0 31 0 16 -30 -9 -18 -11 -33 -5 -43 13 -21 11 -32 -5 -26 -24 9 -39 -20 -33
-61 3 -29 1 -39 -9 -39 -9 0 -12 7 -8 19 9 31 -4 57 -27 51 -12 -3 -25 0 -29
7 -6 9 -13 5 -25 -14 -10 -15 -21 -23 -24 -18 -3 6 -7 -13 -8 -41 -1 -29 -7
-53 -12 -55 -5 -2 4 -33 21 -69 23 -48 28 -67 19 -73 -7 -4 27 -10 76 -13 48
-4 105 -9 126 -13 21 -4 37 -3 35 2 -4 15 22 55 32 49 6 -4 19 10 31 29 25 43
29 44 29 11 0 -14 -15 -40 -39 -65 l-38 -40 25 -7 c24 -6 24 -7 7 -19 -10 -8
-16 -16 -14 -19 3 -3 21 6 39 20 19 14 38 25 42 25 12 0 9 -34 -4 -50 -11 -13
-11 -13 1 -3 12 10 21 -6 57 -95 23 -58 41 -108 40 -110 -15 -14 -195 -65
-247 -69 l-65 -6 -27 90 c-34 114 -35 133 -2 133 13 0 50 10 82 22 57 22 57
22 28 29 -48 11 -186 9 -235 -2 -25 -6 -58 -12 -74 -15 -16 -2 -34 -8 -40 -14
-20 -20 -44 -10 -55 21 -6 18 -11 35 -11 40 0 4 36 19 79 34 72 24 78 28 73
48 -6 22 -7 22 -10 1 -2 -16 -15 -23 -54 -33 -28 -6 -53 -10 -55 -8 -2 2 -8
43 -14 90 -12 100 0 317 27 474 16 93 20 102 42 108 37 9 37 0 1 -49 -51 -72
-26 -66 44 10 59 63 74 73 168 112 57 24 120 51 139 62 l35 18 3 -41 c2 -22 1
-50 -2 -63z m4267 41 c-29 -20 -83 -104 -83 -129 0 -12 -5 -28 -11 -36 -17
-25 1 71 22 111 10 20 33 46 51 56 37 22 53 21 21 -2z m297 -56 c52 -52 89
-113 96 -158 2 -14 -10 3 -27 39 -21 46 -49 83 -97 129 -37 35 -57 58 -45 52
12 -6 45 -34 73 -62z m-250 -40 c0 -28 -18 -59 -35 -59 -23 0 -29 39 -9 61 22
25 44 24 44 -2z m961 -17 c-7 -2 -18 1 -23 6 -8 8 -4 9 13 5 13 -4 18 -8 10
-11z m-1163 -17 c7 -14 12 -32 12 -39 0 -8 8 -13 18 -12 15 1 17 -10 18 -94 0
-55 6 -105 13 -119 l13 -23 -58 7 c-56 6 -79 19 -68 37 3 4 0 8 -6 8 -7 0 -10
6 -7 13 2 6 1 40 -4 75 -8 55 -6 68 16 117 13 30 28 55 33 55 5 0 14 -11 20
-25z m-4108 -70 c0 -43 -4 -75 -10 -75 -5 0 -10 6 -10 13 0 8 -4 7 -10 -3 -14
-22 -13 66 2 107 19 52 28 39 28 -42z m4776 -22 c31 -51 41 -187 14 -189 -8 0
-23 -4 -33 -9 -23 -10 -27 -5 -34 37 -3 18 -15 64 -27 102 -21 65 -22 71 -7
113 l16 44 23 -28 c13 -15 34 -47 48 -70z m-766 7 c0 -30 -63 -93 -78 -78 -8
8 0 22 31 54 23 24 43 44 45 44 1 0 2 -9 2 -20z m216 -121 c83 -121 231 -180
330 -133 19 9 48 33 64 53 17 19 30 31 30 26 0 -19 -58 -81 -94 -100 -20 -11
-36 -25 -36 -32 0 -7 -2 -13 -5 -13 -7 0 -177 71 -200 83 -11 6 -23 11 -26 10
-3 -1 -22 15 -42 35 -37 38 -77 125 -77 165 1 15 5 11 14 -16 8 -21 26 -56 42
-78z m-4482 76 c-4 -8 -8 -15 -10 -15 -2 0 -4 7 -4 15 0 8 4 15 10 15 5 0 7
-7 4 -15z m-214 -32 c-5 -21 -11 -75 -15 -120 -4 -46 -11 -81 -15 -78 -5 3
-11 -1 -13 -7 -3 -8 -6 -5 -6 6 -1 17 -2 17 -27 1 -14 -9 -32 -14 -40 -11 -8
3 -13 2 -10 -3 3 -5 -12 -20 -34 -35 -42 -28 -60 -32 -60 -16 0 6 4 10 10 10
5 0 7 7 4 15 -4 8 -11 12 -17 8 -6 -3 -7 -1 -3 5 5 9 13 9 27 2 23 -13 25 -7
4 13 -13 13 -13 16 1 27 12 11 13 10 8 -5 -5 -12 -4 -16 3 -12 6 4 14 1 16 -5
3 -8 6 -6 6 5 1 11 9 17 26 17 14 0 25 -4 25 -10 0 -5 5 -10 11 -10 8 0 8 5
-1 15 -10 12 -10 15 1 15 11 0 11 2 -1 10 -10 7 -11 10 -2 10 9 0 8 8 -5 28
-15 23 -15 25 -1 14 13 -10 17 -10 22 3 3 9 2 13 -4 10 -6 -3 -10 -1 -10 4 0
6 4 11 9 11 5 0 13 9 16 21 6 19 8 20 26 3 10 -9 19 -12 19 -6 0 6 -4 14 -10
17 -5 3 -10 10 -10 14 0 7 50 71 55 71 2 0 -1 -17 -5 -37z m465 -34 c14 -22
-3 -18 -26 7 -23 25 -23 26 -2 15 12 -6 25 -16 28 -22z m4965 10 c0 -5 -9 -17
-20 -26 -21 -19 -28 -39 -8 -27 7 4 8 3 4 -4 -11 -19 -39 -15 -32 4 3 9 6 19
6 24 0 4 10 10 21 13 15 4 20 11 15 22 -3 9 -2 13 4 10 6 -3 10 -10 10 -16z
m-5160 -12 c0 -2 -14 -16 -32 -33 -18 -16 -26 -20 -18 -9 19 25 50 52 50 42z
m4861 -40 c-10 -9 -11 -8 -5 6 3 10 9 15 12 12 3 -3 0 -11 -7 -18z m-4685
-117 c1 -36 0 -53 -3 -37 -6 36 -16 34 -31 -8 -12 -33 -63 -85 -83 -85 -6 0
-5 8 1 20 7 13 7 26 1 38 -8 14 -4 20 19 30 40 18 64 73 56 131 l-6 46 22 -35
c15 -25 22 -53 24 -100z m4708 75 c-4 -8 -1 -15 5 -15 24 0 9 -20 -26 -38 -21
-10 -51 -27 -67 -37 -16 -11 -4 7 30 42 68 70 65 68 58 48z m246 -2 c-1 -16
-28 -43 -44 -43 -9 0 -16 -5 -16 -11 0 -5 5 -7 10 -4 16 10 11 -12 -7 -31 -9
-9 -44 -29 -77 -44 -34 -16 -78 -40 -100 -55 -32 -21 -41 -24 -55 -13 -9 7
-18 14 -21 16 -2 1 9 14 25 28 l30 26 -33 -22 c-30 -20 -37 -21 -58 -9 -13 7
-23 17 -21 23 5 16 158 95 236 122 65 23 131 31 131 17z m-5510 -24 c0 -5 -4
-9 -10 -9 -5 0 -10 5 -10 12 0 6 -3 8 -7 4 -5 -4 0 -13 10 -21 16 -12 15 -13
-12 -17 -31 -4 -35 8 -12 35 12 16 41 13 41 -4z m4760 -3 c47 -8 117 -26 155
-39 87 -31 245 -104 245 -113 0 -4 -3 -5 -6 -2 -3 4 -19 2 -36 -3 -25 -7 -42
-2 -100 27 -39 19 -72 34 -74 31 -2 -2 28 -19 66 -37 48 -23 70 -39 70 -52 0
-10 -1 -18 -3 -18 -2 0 -30 13 -63 29 -46 22 -139 57 -174 66 -3 1 -12 4 -20
8 -8 3 -33 8 -55 12 -22 4 -48 14 -59 23 -18 16 -17 17 10 23 28 6 27 7 -7 8
-24 1 -43 9 -59 26 l-23 25 24 0 c13 0 62 -6 109 -14z m-4894 -115 c0 -12 -5
-17 -15 -13 -9 3 -12 1 -7 -6 4 -7 2 -12 -3 -12 -16 0 -14 11 6 32 20 22 19
22 19 -1z m487 -18 c12 4 13 -3 10 -38 -5 -42 11 -71 26 -46 5 7 12 2 20 -15
9 -22 16 -25 39 -20 l27 6 -24 -20 c-26 -22 -89 -27 -122 -10 -22 12 -26 32
-4 24 13 -5 13 -3 0 22 -23 44 -17 140 6 103 4 -7 14 -9 22 -6z m4530 -33 c9
-11 17 -22 17 -25 0 -8 -120 58 -120 66 0 12 85 -22 103 -41z m-4913 25 c-7
-8 -17 -15 -22 -15 -11 0 14 29 26 30 5 0 3 -7 -4 -15z m610 -56 c-18 -47 -60
-109 -74 -109 -2 0 11 23 29 51 19 28 40 69 47 91 7 23 14 36 15 31 2 -6 -6
-34 -17 -64z m4770 46 c-7 -9 -15 -13 -17 -11 -7 7 7 26 19 26 6 0 6 -6 -2
-15z m-5260 -30 c0 -24 -6 -37 -19 -45 -22 -11 -123 -12 -161 0 l-25 7 30 13
c40 16 158 58 168 59 4 1 7 -15 7 -34z m5228 13 c-2 -6 -15 -15 -28 -20 -23
-9 -23 -8 -5 12 20 22 39 27 33 8z m-135 -30 c3 -10 8 -10 23 1 18 14 18 14 2
-4 -17 -18 -19 -18 -35 -2 -10 9 -12 17 -6 17 6 0 13 -6 16 -12z m76 -21 c6
-8 8 -17 4 -21 -4 -4 0 -4 10 -1 12 5 38 -15 96 -75 68 -70 78 -85 69 -100
-10 -16 -21 -8 -100 70 -48 49 -88 95 -88 104 0 8 -4 17 -9 20 -5 4 -7 -4 -4
-16 3 -13 2 -20 -2 -15 -5 4 -10 16 -12 27 -3 23 19 27 36 7z m-218 -8 c20
-10 20 -11 2 -31 -18 -21 -18 -21 8 -4 24 15 27 15 44 -4 18 -20 17 -21 -46
-88 -35 -38 -79 -87 -97 -110 -35 -45 -52 -51 -76 -27 -8 8 -19 15 -23 15 -5
0 -18 6 -28 14 -18 13 -18 14 5 47 34 48 172 199 183 199 4 0 17 -5 28 -11z
m111 -3 c7 5 8 2 3 -6 -6 -10 -4 -12 9 -7 11 4 25 -2 41 -17 13 -13 26 -22 29
-19 7 8 156 -140 156 -155 0 -28 -30 -23 -59 10 -59 67 -107 114 -153 151 -27
21 -48 44 -47 50 0 9 2 8 6 -1 2 -6 10 -9 15 -6z m-4526 -72 c-10 -14 -20 -23
-23 -21 -6 6 30 57 36 51 2 -2 -4 -15 -13 -30z m4671 -155 c13 -15 11 -19 -18
-33 -38 -19 -64 -6 -30 16 11 7 21 17 21 21 0 5 -15 0 -32 -11 -22 -13 -40
-17 -53 -12 -12 4 -31 2 -46 -6 -22 -11 -33 -10 -82 8 l-57 21 25 21 c14 12
25 26 25 32 0 5 8 17 18 25 9 9 30 30 45 48 l28 32 71 -73 c39 -40 77 -80 85
-89z m600 155 c-3 -3 -12 -4 -19 -1 -8 3 -5 6 6 6 11 1 17 -2 13 -5z m-5247
-13 c0 -5 -7 -12 -16 -15 -14 -5 -15 -4 -4 9 14 17 20 19 20 6z m-195 -88 c36
-6 38 -7 15 -14 -37 -10 -100 -10 -100 0 0 19 28 24 85 14z m501 -26 c2 -14 0
-29 -6 -32 -6 -4 -10 9 -10 31 0 41 8 41 16 1z m-573 -104 c21 -71 40 -136 44
-145 3 -12 0 -18 -11 -18 -9 0 -16 6 -16 13 0 8 -4 7 -10 -3 -17 -25 -35 9
-69 134 -39 140 -39 146 -3 146 27 0 29 -4 65 -127z m2669 89 c-12 -15 -31
-44 -42 -65 -46 -84 -177 -237 -204 -237 -7 0 -19 -7 -26 -15 -11 -13 -7 -15
22 -15 44 0 154 45 274 111 79 44 111 66 207 144 16 14 17 8 17 -109 l0 -123
-35 -19 c-19 -10 -35 -23 -35 -27 0 -5 16 -6 35 -3 l35 7 0 -50 0 -50 -72 25
c-118 40 -331 66 -478 59 -117 -5 -286 -19 -390 -31 l-45 -5 25 21 c14 11 61
41 105 67 44 26 112 68 152 95 39 26 125 74 190 106 126 62 252 129 267 143
20 18 19 -3 -2 -29z m2474 -5 c-2 -7 -5 -4 -5 6 -1 9 -6 17 -12 17 -5 0 -7 5
-3 11 9 15 28 -16 20 -34z m-5256 0 c0 -13 3 -27 8 -31 4 -4 7 -11 8 -14 0 -4
3 -14 6 -22 3 -8 13 -41 21 -73 l16 -58 -22 7 c-12 3 -40 16 -62 28 -33 18
-44 31 -62 81 -12 33 -22 63 -22 66 -1 8 69 37 92 38 11 1 17 -6 17 -22z
m5236 -4 c4 -10 6 -41 5 -70 -2 -40 1 -53 15 -61 16 -9 15 -10 -4 -16 -12 -4
-22 -11 -22 -16 0 -5 6 -7 14 -4 7 3 16 -2 19 -10 5 -14 1 -13 -36 1 -23 10
-77 37 -121 61 -82 47 -86 61 -16 62 25 0 48 10 79 35 50 40 56 42 67 18z
m-447 -34 c23 -7 41 -16 41 -21 0 -5 -8 -7 -17 -4 -10 2 -37 10 -60 17 -23 7
-40 16 -37 21 3 5 12 7 19 4 7 -2 31 -10 54 -17z m-4100 -71 l-2 -73 -8 64
c-7 58 -6 81 7 81 2 0 3 -33 3 -72z m4267 47 c21 -11 41 -23 44 -26 3 -3 30
-18 60 -33 52 -26 250 -136 250 -140 0 0 -24 -27 -53 -58 l-52 -57 -51 52
c-27 29 -69 73 -92 99 -23 26 -42 45 -42 42 0 -6 105 -136 148 -184 12 -14 22
-27 22 -30 0 -7 -179 -65 -183 -59 -2 2 -9 24 -15 49 -46 164 -61 210 -57 176
2 -22 16 -82 31 -133 15 -52 25 -95 23 -97 -2 -2 -38 2 -79 9 -41 8 -90 14
-107 14 -18 1 -33 5 -33 9 0 5 11 46 25 92 14 46 23 85 21 87 -3 3 -17 -33
-58 -147 -5 -13 -12 -20 -16 -15 -7 10 -112 82 -146 100 -11 5 -21 15 -23 21
-2 6 38 41 89 79 51 38 120 92 152 121 65 57 80 60 142 29z m-5069 -91 c44 -5
46 -8 59 -76 3 -21 10 -36 14 -33 11 7 58 -96 70 -153 6 -26 12 -57 15 -69 5
-20 1 -23 -25 -23 -24 0 -30 4 -31 23 -2 21 -2 21 -6 1 -3 -14 -17 -25 -41
-33 -20 -7 -43 -15 -49 -17 -10 -4 -12 7 -8 43 l4 48 -12 -53 -12 -52 -55 29
c-51 27 -57 34 -83 97 l-28 69 63 57 c35 32 66 58 71 58 4 0 7 5 7 11 0 6 -30
-15 -67 -45 -37 -31 -70 -56 -73 -56 -6 0 -1 158 5 178 5 12 56 11 182 -4z
m1171 -41 c6 -16 27 -70 48 -122 20 -52 36 -104 36 -115 0 -12 -5 -78 -11
-148 -7 -77 -8 -244 -4 -430 3 -167 3 -300 -1 -296 -13 11 -66 231 -66 271 0
43 -35 276 -49 322 -4 17 -21 57 -36 89 l-28 59 22 66 c19 60 39 159 56 284 7
53 18 60 33 20z m4300 -27 c25 -15 1 -24 -28 -9 -17 8 -30 15 -30 17 0 5 47
-1 58 -8z m-23 -116 c3 -5 2 -10 -4 -10 -5 0 -13 5 -16 10 -3 6 -2 10 4 10 5
0 13 -4 16 -10z m-15 -20 c13 -8 13 -10 -2 -10 -9 0 -20 5 -23 10 -8 13 5 13
25 0z m-2704 -151 c-9 -18 -16 -39 -15 -48 1 -9 5 -5 9 9 6 20 8 13 9 -30 1
-30 6 -73 10 -95 5 -22 18 -87 30 -144 l21 -105 -56 -50 c-53 -48 -214 -146
-241 -146 -9 0 -13 36 -15 132 -3 118 -5 131 -21 134 -29 4 -105 -53 -131 -99
-26 -44 -65 -173 -67 -217 -1 -24 -1 -24 -10 5 -24 76 -119 576 -119 624 0 9
17 13 180 37 86 13 416 34 429 27 1 -1 -4 -16 -13 -34z m74 10 c0 -5 -4 -9
-10 -9 -5 0 -10 7 -10 16 0 8 5 12 10 9 6 -3 10 -10 10 -16z m32 14 c-6 -2
-10 -9 -6 -14 3 -5 0 -9 -5 -9 -6 0 -11 7 -11 15 0 8 8 15 18 14 10 0 12 -3 4
-6z m-46 -107 c14 -20 14 -19 15 9 1 26 2 27 7 8 l7 -21 39 19 c21 10 43 16
47 13 5 -3 9 -1 9 5 0 6 6 8 14 5 10 -4 2 -18 -28 -50 -23 -24 -47 -44 -54
-44 -7 0 -12 -4 -12 -10 0 -13 12 -13 44 -1 17 7 26 7 29 -2 2 -7 7 7 11 31 4
23 12 42 17 42 6 0 8 -4 5 -9 -4 -5 -1 -32 6 -60 10 -45 9 -53 -7 -71 -10 -11
-15 -23 -12 -27 4 -3 7 -2 7 4 0 6 8 14 17 17 13 5 11 0 -7 -21 -38 -42 -65
-74 -98 -113 -17 -19 -33 -33 -35 -30 -3 3 -17 63 -32 135 -20 98 -24 134 -16
147 14 23 14 38 0 18 -9 -12 -10 -12 -5 3 3 10 7 40 8 65 l1 47 4 -44 c3 -25
11 -54 19 -65z m144 84 c-8 -5 -19 -10 -25 -10 -5 0 -3 5 5 10 8 5 20 10 25
10 6 0 3 -5 -5 -10z m-143 -42 c-3 -7 -5 -2 -5 12 0 14 2 19 5 13 2 -7 2 -19
0 -25z m213 -13 c0 -2 -7 -5 -15 -9 -9 -3 -15 0 -15 9 0 9 6 12 15 9 8 -4 15
-7 15 -9z m27 -21 c-3 -3 -12 -4 -19 -1 -8 3 -5 6 6 6 11 1 17 -2 13 -5z m-9
-69 c-3 -3 -9 2 -12 12 -6 14 -5 15 5 6 7 -7 10 -15 7 -18z m-24 -1 c4 -9 2
-22 -4 -29 -5 -6 -7 -15 -3 -18 3 -4 1 -7 -5 -7 -7 0 -12 15 -12 35 0 36 13
47 24 19z m643 -316 c-3 -8 -6 -5 -6 6 -1 11 2 17 5 13 3 -3 4 -12 1 -19z
m-17 -31 c0 -2 -12 -14 -27 -28 l-28 -24 24 28 c23 25 31 32 31 24z m1069
-137 c4 -14 4 -36 0 -50 -7 -24 -7 -24 -8 5 0 17 -3 48 -5 70 -3 22 -3 31 0
20 3 -11 9 -31 13 -45z m-1089 46 c0 -3 -4 -8 -10 -11 -5 -3 -10 -1 -10 4 0 6
5 11 10 11 6 0 10 -2 10 -4z m-1055 -386 c7 -12 -12 -40 -26 -40 -5 0 -9 11
-9 25 0 25 23 35 35 15z m-1937 -193 c-15 -12 -47 -33 -70 -46 -43 -23 -43
-23 -22 -1 24 24 93 68 109 69 6 0 -2 -10 -17 -22z m4169 -19 c-3 -8 -6 -5 -6
6 -1 11 2 17 5 13 3 -3 4 -12 1 -19z m-4227 -175 c-1 -5 -26 -28 -56 -53 -31
-25 -91 -80 -135 -123 -43 -43 -79 -77 -79 -74 0 9 49 134 74 187 l25 55 73 6
c40 3 79 6 86 7 6 1 12 -1 12 -5z m2137 -535 c-3 -8 -6 -5 -6 6 -1 11 2 17 5
13 3 -3 4 -12 1 -19z m-7 -33 c-10 -12 -10 -15 3 -15 17 0 37 -68 37 -124 0
-29 4 -36 20 -36 18 0 20 -7 20 -80 0 -47 -4 -80 -10 -80 -5 0 -10 -6 -10 -14
0 -7 -12 -21 -26 -31 -16 -10 -23 -22 -20 -32 8 -21 -10 -41 -51 -58 -18 -8
-32 -19 -31 -24 3 -10 -72 -54 -80 -47 -4 5 14 152 28 216 27 132 54 226 66
233 8 4 14 15 14 23 0 25 28 84 41 84 8 0 8 -4 -1 -15z m247 -207 c-3 -7 -5
-2 -5 12 0 14 2 19 5 13 2 -7 2 -19 0 -25z m-20 -45 c-3 -10 -5 -4 -5 12 0 17
2 24 5 18 2 -7 2 -21 0 -30z m-106 -16 c-1 -4 -1 -21 -1 -39 0 -40 -6 -34 -13
15 -4 24 -2 37 4 35 6 -2 10 -7 10 -11z m54 -97 c-3 -5 -11 -10 -16 -10 -6 0
-7 5 -4 10 3 6 11 10 16 10 6 0 7 -4 4 -10z m48 -42 c8 -28 -9 -48 -38 -48
-16 0 -24 7 -27 23 -7 35 1 47 32 47 20 0 29 -6 33 -22z m-66 -80 c-3 -8 -6
-5 -6 6 -1 11 2 17 5 13 3 -3 4 -12 1 -19z m-147 -18 c0 -5 -2 -10 -4 -10 -3
0 -8 5 -11 10 -3 6 -1 10 4 10 6 0 11 -4 11 -10z m2148 -2 c18 -18 15 -118 -5
-140 -21 -24 -37 -22 -103 10 -60 30 -72 52 -43 84 45 51 123 74 151 46z"/>
<path d="M1465 5390 c-3 -5 -1 -10 4 -10 6 0 11 5 11 10 0 6 -2 10 -4 10 -3 0
-8 -4 -11 -10z"/>
<path d="M1851 4764 c0 -11 3 -14 6 -6 3 7 2 16 -1 19 -3 4 -6 -2 -5 -13z"/>
<path d="M1726 4607 c3 -10 9 -15 12 -12 3 3 0 11 -7 18 -10 9 -11 8 -5 -6z"/>
<path d="M4723 3840 c0 -25 2 -35 4 -22 2 12 2 32 0 45 -2 12 -4 2 -4 -23z"/>
<path d="M5865 4536 l-18 -47 34 -29 c19 -16 37 -29 41 -30 4 0 12 19 18 42
11 40 11 42 -23 76 l-35 34 -17 -46z m33 -10 c-7 -8 -15 -12 -17 -11 -5 6 10
25 20 25 5 0 4 -6 -3 -14z m12 -26 c-9 -16 -8 -18 5 -14 11 5 13 2 9 -9 -6
-18 -34 -12 -34 7 0 11 19 36 27 36 2 0 -1 -9 -7 -20z"/>
<path d="M5706 3653 c-6 -14 -5 -15 5 -6 7 7 10 15 7 18 -3 3 -9 -2 -12 -12z"/>
<path d="M6427 4255 c10 -13 24 -27 32 -30 11 -4 11 -2 3 8 -7 8 -9 17 -5 20
3 4 -1 7 -10 7 -9 0 -17 5 -17 10 0 6 -5 10 -10 10 -6 0 -3 -11 7 -25z"/>
<path d="M6570 4200 c0 -5 5 -10 10 -10 6 0 10 5 10 10 0 6 -4 10 -10 10 -5 0
-10 -4 -10 -10z"/>
<path d="M1471 4034 c0 -11 3 -14 6 -6 3 7 2 16 -1 19 -3 4 -6 -2 -5 -13z"/>
<path d="M1285 3763 c-8 -23 -6 -29 5 -13 9 13 10 13 10 0 0 -13 1 -13 10 0
13 21 12 27 -5 27 -8 0 -17 -7 -20 -14z"/>
<path d="M6360 3857 c0 -20 4 -37 9 -37 5 0 7 15 4 33 -7 45 -13 47 -13 4z"/>
<path d="M1071 3834 c0 -11 3 -14 6 -6 3 7 2 16 -1 19 -3 4 -6 -2 -5 -13z"/>
<path d="M1052 3775 c0 -16 2 -22 5 -12 2 9 2 23 0 30 -3 6 -5 -1 -5 -18z"/>
<path d="M1080 3776 c0 -8 4 -17 9 -20 5 -4 7 3 4 14 -6 23 -13 26 -13 6z"/>
<path d="M6285 3680 c-3 -6 1 -7 9 -4 18 7 21 14 7 14 -6 0 -13 -4 -16 -10z"/>
<path d="M5771 3726 c2 -2 22 -6 44 -9 27 -4 35 -3 25 3 -14 9 -79 15 -69 6z"/>
<path d="M5868 3703 c7 -3 16 -2 19 1 4 3 -2 6 -13 5 -11 0 -14 -3 -6 -6z"/>
<path d="M5990 3490 c0 -6 -4 -9 -9 -5 -5 3 -13 0 -17 -6 -4 -7 -3 -9 4 -5 5
3 12 2 14 -3 1 -5 9 -3 15 4 8 9 9 16 3 20 -6 3 -10 1 -10 -5z"/>
<path d="M5994 3443 c-21 -27 -28 -40 -17 -30 12 11 26 16 32 12 7 -3 8 0 5
10 -5 11 -2 14 12 8 12 -4 15 -3 10 6 -4 6 -2 18 4 26 7 9 8 15 2 15 -5 0 -27
-21 -48 -47z"/>
<path d="M6044 3446 c1 -19 4 -22 15 -13 9 8 10 12 2 15 -6 2 -9 8 -5 13 3 5
1 9 -4 9 -6 0 -9 -11 -8 -24z"/>
<path d="M5929 3363 c-13 -16 -12 -17 4 -4 16 13 21 21 13 21 -2 0 -10 -8 -17
-17z"/>
<path d="M6192 3230 c0 -14 2 -19 5 -12 2 6 2 18 0 25 -3 6 -5 1 -5 -13z"/>
<path d="M6251 3210 c29 -45 29 -45 29 -34 0 5 -12 23 -26 39 l-26 30 23 -35z"/>
<path d="M6136 3221 c-4 -5 -2 -12 3 -15 5 -4 12 -2 15 3 4 5 2 12 -3 15 -5 4
-12 2 -15 -3z"/>
<path d="M6211 3154 c0 -11 3 -14 6 -6 3 7 2 16 -1 19 -3 4 -6 -2 -5 -13z"/>
<path d="M6116 3125 c-3 -9 -6 -22 -5 -28 0 -7 5 -1 10 12 5 13 8 26 5 28 -2
2 -6 -3 -10 -12z"/>
<path d="M1137 3013 c-42 -68 -90 -163 -85 -169 3 -3 27 37 53 88 26 51 52 99
57 106 6 6 8 12 4 12 -3 0 -16 -17 -29 -37z"/>
<path d="M1254 2955 c5 -47 12 -85 15 -85 4 0 2 38 -3 85 -5 47 -12 85 -15 85
-4 0 -2 -38 3 -85z"/>
<path d="M4102 2680 c0 -14 2 -19 5 -12 2 6 2 18 0 25 -3 6 -5 1 -5 -13z"/>
<path d="M3831 764 c0 -11 3 -14 6 -6 3 7 2 16 -1 19 -3 4 -6 -2 -5 -13z"/>
<path d="M5356 7133 c38 -38 83 -86 99 -108 60 -82 107 -135 121 -135 12 0 11
7 -5 38 -11 20 -30 60 -42 87 -13 28 -25 52 -29 55 -3 3 -14 22 -23 43 -10 20
-21 37 -25 37 -4 0 -12 10 -17 23 -9 19 -18 22 -80 25 l-70 2 71 -67z"/>
<path d="M6043 7160 c8 -27 14 -36 19 -26 7 13 -11 66 -23 66 -3 0 -1 -18 4
-40z"/>
<path d="M5630 6811 c0 -5 7 -14 15 -21 16 -14 18 -10 9 14 -6 17 -24 22 -24
7z"/>
<path d="M5255 6520 c10 -11 20 -18 23 -15 7 6 -18 35 -31 35 -5 0 -2 -9 8
-20z"/>
<path d="M5090 6040 c0 -5 9 -32 20 -60 23 -58 23 -60 11 -60 -9 0 -132 78
-158 100 -9 7 -13 7 -13 1 0 -6 10 -16 23 -22 12 -7 38 -25 58 -40 71 -56 309
-163 325 -146 2 2 -28 16 -67 30 -74 27 -139 69 -139 89 0 14 -49 118 -55 118
-3 0 -5 -4 -5 -10z"/>
<path d="M1848 6015 c-3 -11 -9 -29 -13 -40 -3 -11 1 -7 10 8 9 16 15 33 12
40 -2 6 -6 3 -9 -8z"/>
<path d="M1816 5934 c-4 -9 -4 -19 -1 -22 2 -3 7 3 11 12 4 9 4 19 1 22 -2 3
-7 -3 -11 -12z"/>
<path d="M1776 5849 c-14 -29 -26 -58 -25 -63 0 -6 13 16 30 48 16 33 27 61
25 64 -3 2 -16 -20 -30 -49z"/>
<path d="M5490 5830 c-12 -8 -12 -10 5 -10 11 0 27 5 35 10 12 8 12 10 -5 10
-11 0 -27 -5 -35 -10z"/>
<path d="M1729 5775 c-1 -11 -1 -26 0 -34 2 -7 -2 -10 -8 -6 -6 3 -11 2 -11
-4 0 -22 18 -19 29 5 7 17 8 31 1 42 -8 15 -10 15 -11 -3z"/>
<path d="M5305 5770 c3 -5 10 -10 16 -10 5 0 9 5 9 10 0 6 -7 10 -16 10 -8 0
-12 -4 -9 -10z"/>
<path d="M5358 5743 c6 -2 18 -2 25 0 6 3 1 5 -13 5 -14 0 -19 -2 -12 -5z"/>
<path d="M2166 5715 c-9 -26 -7 -32 5 -12 6 10 9 21 6 23 -2 3 -7 -2 -11 -11z"/>
<path d="M1699 5698 c-1 -7 -1 -18 0 -25 1 -6 -3 -14 -9 -18 -12 -7 -13 -25
-2 -25 5 0 14 11 20 25 7 14 8 25 2 25 -5 0 -7 7 -4 15 4 8 3 15 0 15 -3 0 -7
-6 -7 -12z"/>
<path d="M2155 5669 c-4 -6 -5 -12 -2 -15 2 -3 7 2 10 11 7 17 1 20 -8 4z"/>
<path d="M2135 5630 c-3 -5 -1 -10 4 -10 6 0 11 5 11 10 0 6 -2 10 -4 10 -3 0
-8 -4 -11 -10z"/>
<path d="M1640 5613 c-13 -15 -12 -16 4 -10 10 4 20 7 22 7 2 0 4 5 4 10 0 15
-13 12 -30 -7z"/>
<path d="M6157 5609 c7 -7 15 -10 18 -7 3 3 -2 9 -12 12 -14 6 -15 5 -6 -5z"/>
<path d="M1670 5585 c0 -8 2 -15 4 -15 2 0 6 7 10 15 3 8 1 15 -4 15 -6 0 -10
-7 -10 -15z"/>
<path d="M6200 5560 c0 -5 5 -10 10 -10 6 0 10 5 10 10 0 6 -4 10 -10 10 -5 0
-10 -4 -10 -10z"/>
<path d="M3448 5543 c6 -2 18 -2 25 0 6 3 1 5 -13 5 -14 0 -19 -2 -12 -5z"/>
<path d="M3565 5544 c47 -7 113 -8 108 -1 -2 4 -32 6 -66 6 -34 -1 -53 -3 -42
-5z"/>
<path d="M3703 5533 c9 -2 23 -2 30 0 6 3 -1 5 -18 5 -16 0 -22 -2 -12 -5z"/>
<path d="M6230 5530 c0 -5 5 -10 11 -10 5 0 7 5 4 10 -3 6 -8 10 -11 10 -2 0
-4 -4 -4 -10z"/>
<path d="M5258 5503 c7 -3 16 -2 19 1 4 3 -2 6 -13 5 -11 0 -14 -3 -6 -6z"/>
<path d="M3763 5473 c9 -2 25 -2 35 0 9 3 1 5 -18 5 -19 0 -27 -2 -17 -5z"/>
<path d="M6280 5464 c0 -5 9 -17 20 -27 11 -9 20 -13 20 -8 0 4 -9 16 -20 26
-11 10 -20 14 -20 9z"/>
<path d="M4340 5406 c0 -2 8 -10 18 -17 15 -13 16 -12 3 4 -13 16 -21 21 -21
13z"/>
<path d="M2480 5336 c0 -2 8 -10 18 -17 15 -13 16 -12 3 4 -13 16 -21 21 -21
13z"/>
<path d="M2268 5323 c6 -2 18 -2 25 0 6 3 1 5 -13 5 -14 0 -19 -2 -12 -5z"/>
<path d="M4450 5310 c0 -5 5 -10 11 -10 5 0 7 5 4 10 -3 6 -8 10 -11 10 -2 0
-4 -4 -4 -10z"/>
<path d="M6390 5311 c0 -6 5 -13 10 -16 6 -3 10 1 10 9 0 9 -4 16 -10 16 -5 0
-10 -4 -10 -9z"/>
<path d="M6320 5290 c0 -5 5 -10 10 -10 6 0 10 5 10 10 0 6 -4 10 -10 10 -5 0
-10 -4 -10 -10z"/>
<path d="M6428 5283 c6 -2 18 -2 25 0 6 3 1 5 -13 5 -14 0 -19 -2 -12 -5z"/>
<path d="M950 5251 c0 -5 9 -7 20 -4 11 3 20 7 20 9 0 2 -9 4 -20 4 -11 0 -20
-4 -20 -9z"/>
<path d="M4535 5240 c3 -5 14 -10 23 -10 15 0 15 2 2 10 -20 13 -33 13 -25 0z"/>
<path d="M6270 5191 c0 -5 7 -11 15 -15 8 -3 15 -15 15 -27 0 -30 6 -21 14 21
4 26 3 31 -5 20 -8 -11 -12 -12 -16 -2 -5 14 -23 16 -23 3z"/>
<path d="M2620 5175 c0 -5 5 -17 10 -25 5 -8 10 -10 10 -5 0 6 -5 17 -10 25
-5 8 -10 11 -10 5z"/>
<path d="M3109 5065 c17 -33 31 -51 31 -40 0 6 -10 21 -21 35 -13 17 -17 18
-10 5z"/>
<path d="M4832 5014 c10 -10 20 -16 22 -13 3 3 -5 11 -17 18 -21 13 -21 12 -5
-5z"/>
<path d="M6315 4939 l0 -86 33 8 c46 10 53 20 13 17 -20 -2 -36 2 -38 10 -3 7
3 12 15 12 13 0 22 11 30 39 16 53 15 81 -3 81 -11 0 -15 -13 -16 -52 -1 -29
-4 -43 -6 -30 -2 12 -8 22 -13 22 -5 0 -10 15 -12 33 -2 17 -4 -7 -3 -54z"/>
<path d="M3164 4977 c16 -20 30 -37 33 -37 7 0 -36 58 -49 66 -7 4 1 -9 16
-29z"/>
<path d="M5495 4970 c-3 -5 1 -10 9 -10 9 0 16 5 16 10 0 6 -4 10 -9 10 -6 0
-13 -4 -16 -10z"/>
<path d="M6276 4902 c-4 -7 -4 -16 -1 -22 3 -5 1 -10 -6 -10 -7 0 -10 -3 -6
-6 12 -13 34 11 27 30 -4 14 -9 16 -14 8z"/>
<path d="M6385 4850 c3 -5 8 -10 11 -10 2 0 4 5 4 10 0 6 -5 10 -11 10 -5 0
-7 -4 -4 -10z"/>
<path d="M5455 4710 c3 -5 18 -10 32 -10 32 0 28 5 -10 14 -19 4 -26 3 -22 -4z"/>
<path d="M6360 4659 c0 -5 5 -7 10 -4 6 3 10 8 10 11 0 2 -4 4 -10 4 -5 0 -10
-5 -10 -11z"/>
<path d="M2403 4533 c9 -2 25 -2 35 0 9 3 1 5 -18 5 -19 0 -27 -2 -17 -5z"/>
<path d="M930 4340 c0 -5 5 -10 10 -10 6 0 10 5 10 10 0 6 -4 10 -10 10 -5 0
-10 -4 -10 -10z"/>
<path d="M6798 4063 c6 -2 18 -2 25 0 6 3 1 5 -13 5 -14 0 -19 -2 -12 -5z"/>
<path d="M6895 4020 c3 -5 11 -10 16 -10 6 0 7 5 4 10 -3 6 -11 10 -16 10 -6
0 -7 -4 -4 -10z"/>
<path d="M6971 4007 c8 -8 22 -12 32 -9 22 6 20 7 -16 16 -24 6 -26 5 -16 -7z"/>
<path d="M3138 3793 c7 -3 16 -2 19 1 4 3 -2 6 -13 5 -11 0 -14 -3 -6 -6z"/>
<path d="M3078 3783 c7 -3 16 -2 19 1 4 3 -2 6 -13 5 -11 0 -14 -3 -6 -6z"/>
<path d="M2603 3753 c9 -2 25 -2 35 0 9 3 1 5 -18 5 -19 0 -27 -2 -17 -5z"/>
<path d="M2764 3549 c14 -11 26 -27 26 -35 0 -8 6 -14 14 -14 7 0 19 -14 26
-30 7 -17 17 -33 22 -36 5 -3 0 11 -11 32 -23 46 -75 104 -92 104 -6 0 0 -9
15 -21z"/>
<path d="M2695 3549 c-4 -6 -5 -12 -2 -15 2 -3 7 2 10 11 7 17 1 20 -8 4z"/>
<path d="M3039 3493 c-13 -16 -12 -17 4 -4 16 13 21 21 13 21 -2 0 -10 -8 -17
-17z"/>
<path d="M2681 3478 c0 -9 -4 -25 -7 -35 -5 -14 -4 -15 5 -7 7 7 11 22 8 35
-2 13 -5 16 -6 7z"/>
<path d="M2802 3465 c0 -16 2 -22 5 -12 2 9 2 23 0 30 -3 6 -5 -1 -5 -18z"/>
<path d="M2605 3456 c3 -16 15 -41 26 -54 26 -34 24 -20 -7 36 -20 37 -24 41
-19 18z"/>
<path d="M3010 3418 c-6 -29 -10 -100 -8 -158 l4 -105 2 121 c1 66 5 124 9
127 7 8 15 67 9 67 -3 0 -10 -24 -16 -52z"/>
<path d="M2505 3405 c-4 -25 -5 -48 -2 -51 2 -3 8 16 12 41 3 26 4 49 2 52 -3
3 -9 -16 -12 -42z"/>
<path d="M2671 3384 c0 -11 3 -14 6 -6 3 7 2 16 -1 19 -3 4 -6 -2 -5 -13z"/>
<path d="M2871 3374 c0 -11 3 -14 6 -6 3 7 2 16 -1 19 -3 4 -6 -2 -5 -13z"/>
<path d="M3191 3344 c0 -11 3 -14 6 -6 3 7 2 16 -1 19 -3 4 -6 -2 -5 -13z"/>
<path d="M2882 3330 c0 -14 4 -38 8 -55 7 -27 8 -27 8 -5 0 14 -4 39 -8 55 -7
27 -8 27 -8 5z"/>
<path d="M2660 3299 c0 -17 4 -28 10 -24 11 7 9 55 -2 55 -4 0 -8 -14 -8 -31z"/>
<path d="M3202 3300 c0 -8 4 -26 8 -40 6 -20 8 -21 8 -5 0 11 -3 29 -8 40 -5
12 -8 14 -8 5z"/>
<path d="M2482 3270 c0 -14 2 -19 5 -12 2 6 2 18 0 25 -3 6 -5 1 -5 -13z"/>
<path d="M2674 3060 c0 -113 2 -159 3 -102 2 56 2 148 0 205 -1 56 -3 10 -3
-103z"/>
<path d="M2902 3200 c0 -19 2 -27 5 -17 2 9 2 25 0 35 -3 9 -5 1 -5 -18z"/>
<path d="M3221 3204 c0 -11 3 -14 6 -6 3 7 2 16 -1 19 -3 4 -6 -2 -5 -13z"/>
<path d="M3232 3160 c0 -14 2 -19 5 -12 2 6 2 18 0 25 -3 6 -5 1 -5 -13z"/>
<path d="M3013 3100 c0 -25 2 -35 4 -22 2 12 2 32 0 45 -2 12 -4 2 -4 -23z"/>
<path d="M2912 3065 c0 -16 2 -22 5 -12 2 9 2 23 0 30 -3 6 -5 -1 -5 -18z"/>
<path d="M3252 3050 c0 -14 2 -19 5 -12 2 6 2 18 0 25 -3 6 -5 1 -5 -13z"/>
<path d="M3023 2980 c0 -25 2 -35 4 -22 2 12 2 32 0 45 -2 12 -4 2 -4 -23z"/>
<path d="M2985 2919 c-21 -5 -45 -7 -52 -5 -20 8 -16 -8 6 -23 16 -12 17 -16
6 -28 -10 -10 -12 -32 -8 -86 3 -39 7 -73 8 -75 1 -1 22 4 48 12 25 7 48 11
51 8 4 -3 6 -26 6 -50 0 -25 3 -43 6 -39 4 3 1 66 -6 139 -7 73 -13 139 -13
146 0 6 -3 12 -6 11 -3 -1 -24 -5 -46 -10z"/>
<path d="M6053 2695 c0 -27 2 -38 4 -22 2 15 2 37 0 50 -2 12 -4 0 -4 -28z"/>
<path d="M1202 2695 c0 -16 2 -22 5 -12 2 9 2 23 0 30 -3 6 -5 -1 -5 -18z"/>
<path d="M6770 2680 c0 -11 7 -20 15 -20 8 0 15 9 15 20 0 11 -7 20 -15 20 -8
0 -15 -9 -15 -20z"/>
<path d="M2952 2670 c0 -14 2 -19 5 -12 2 6 2 18 0 25 -3 6 -5 1 -5 -13z"/>
<path d="M6828 2633 c7 -3 16 -2 19 1 4 3 -2 6 -13 5 -11 0 -14 -3 -6 -6z"/>
<path d="M7186 2613 c-4 -9 -2 -21 4 -27 7 -7 10 -2 10 17 0 31 -5 34 -14 10z"/>
<path d="M2683 2585 c0 -22 2 -30 4 -17 2 12 2 30 0 40 -3 9 -5 -1 -4 -23z"/>
<path d="M2961 2605 c0 -11 6 -58 14 -105 8 -47 23 -141 35 -209 30 -179 38
-207 60 -207 17 0 17 2 5 16 -13 14 -30 92 -94 425 -10 55 -19 91 -20 80z"/>
<path d="M3062 2580 c0 -19 3 -57 8 -85 6 -40 7 -43 8 -15 0 19 -3 58 -8 85
-6 40 -7 43 -8 15z"/>
<path d="M6743 2593 c-46 -2 -83 -8 -83 -12 0 -5 -20 -11 -46 -14 -27 -3 -50
-12 -58 -23 -15 -20 -25 -113 -20 -184 1 -25 4 -74 5 -110 1 -36 7 -71 12 -77
6 -9 5 -13 -4 -13 -11 -1 -11 -3 1 -9 8 -5 52 -12 98 -16 72 -7 82 -6 82 9 0
9 5 16 11 16 5 0 7 5 4 10 -4 6 -10 8 -14 5 -5 -2 -11 17 -14 43 -5 43 -2 50
31 87 20 22 50 48 66 58 57 34 66 55 65 137 -2 74 -15 103 -44 98 -5 -1 -47
-4 -92 -5z"/>
<path d="M2693 2475 c0 -27 2 -38 4 -22 2 15 2 37 0 50 -2 12 -4 0 -4 -28z"/>
<path d="M7114 2492 c-19 -12 -34 -49 -34 -81 0 -17 -4 -31 -9 -31 -27 0 -15
-106 15 -130 12 -11 19 -9 37 11 12 13 27 40 33 59 13 45 6 149 -12 167 -15
15 -15 15 -30 5z"/>
<path d="M3086 2370 c2 -36 7 -144 11 -240 4 -96 10 -159 13 -140 6 43 -7 303
-20 385 l-9 60 5 -65z"/>
<path d="M2707 2305 c3 -66 7 -122 9 -124 7 -7 2 121 -6 184 -5 40 -6 21 -3
-60z"/>
<path d="M6310 2291 c0 -6 4 -13 10 -16 6 -3 7 1 4 9 -7 18 -14 21 -14 7z"/>
<path d="M2142 2075 c0 -11 4 -31 8 -45 6 -20 8 -21 8 -5 0 11 -4 31 -8 45 -6
20 -8 21 -8 5z"/>
<path d="M6818 2064 c-11 -10 3 -34 19 -34 8 0 13 7 11 17 -3 18 -20 27 -30
17z"/>
<path d="M6808 2003 c7 -3 16 -2 19 1 4 3 -2 6 -13 5 -11 0 -14 -3 -6 -6z"/>
<path d="M6850 1970 c0 -6 7 -13 15 -16 8 -4 15 -12 15 -20 0 -8 8 -14 18 -14
11 0 13 3 6 8 -7 4 -13 16 -15 27 -4 21 -39 35 -39 15z"/>
<path d="M7120 1785 c0 -11 11 -15 40 -15 43 0 54 14 18 24 -38 10 -58 7 -58
-9z"/>
<path d="M7148 1753 c6 -2 18 -2 25 0 6 3 1 5 -13 5 -14 0 -19 -2 -12 -5z"/>
<path d="M7120 1730 c0 -13 11 -13 30 0 12 8 11 10 -7 10 -13 0 -23 -4 -23
-10z"/>
<path d="M7040 1715 c0 -9 5 -15 11 -13 6 2 11 8 11 13 0 5 -5 11 -11 13 -6 2
-11 -4 -11 -13z"/>
<path d="M3755 1610 c-3 -5 -1 -10 4 -10 6 0 11 5 11 10 0 6 -2 10 -4 10 -3 0
-8 -4 -11 -10z"/>
<path d="M2200 1555 c-7 -8 -27 -17 -46 -21 -34 -6 -48 -24 -19 -24 18 0 85
41 85 53 0 11 -6 9 -20 -8z"/>
<path d="M3701 1473 c1 -51 2 -50 18 10 8 30 7 37 -5 37 -10 0 -14 -13 -13
-47z"/>
<path d="M2151 1484 c-20 -20 -34 -24 -82 -24 -55 0 -61 -2 -131 -58 -75 -60
-164 -144 -208 -197 -14 -16 9 3 50 42 105 101 227 193 259 194 14 1 35 0 47
0 11 -1 44 14 73 34 30 20 45 35 35 34 -11 -1 -30 -12 -43 -25z"/>
<path d="M2048 1400 c-43 -38 -31 -39 17 0 21 17 33 30 27 30 -7 0 -26 -13
-44 -30z"/>
<path d="M1936 1228 c-36 -40 -66 -77 -65 -83 0 -5 3 -4 6 3 2 6 9 12 14 12 6
0 7 -4 4 -10 -3 -5 -1 -18 5 -27 7 -13 10 -14 8 -3 -5 25 23 83 64 133 58 70
39 57 -36 -25z"/>
<path d="M2301 1240 c-1 -31 21 -110 26 -90 1 8 -3 38 -11 65 -9 33 -14 41
-15 25z"/>
<path d="M3722 1230 c0 -14 2 -19 5 -12 2 6 2 18 0 25 -3 6 -5 1 -5 -13z"/>
<path d="M2141 1164 c0 -11 3 -14 6 -6 3 7 2 16 -1 19 -3 4 -6 -2 -5 -13z"/>
<path d="M2140 1132 c0 -14 35 -42 51 -41 8 0 4 5 -8 11 -13 6 -23 17 -23 25
0 7 -4 13 -10 13 -5 0 -10 -4 -10 -8z"/>
<path d="M1872 1110 c0 -14 2 -19 5 -12 2 6 2 18 0 25 -3 6 -5 1 -5 -13z"/>
<path d="M1905 1030 c-4 -6 -1 -10 5 -10 6 0 8 -5 4 -12 -4 -6 -3 -8 4 -4 5 3
12 0 15 -6 2 -7 8 -10 11 -6 4 3 -2 16 -13 27 -11 11 -23 16 -26 11z"/>
<path d="M1821 1014 c0 -11 3 -14 6 -6 3 7 2 16 -1 19 -3 4 -6 -2 -5 -13z"/>
<path d="M1830 985 c0 -27 15 -33 45 -19 l30 14 -29 -6 c-18 -3 -32 0 -37 8
-5 7 -9 9 -9 3z"/>
<path d="M2251 981 c-9 -6 -1 -10 25 -13 44 -6 55 -1 34 12 -19 12 -41 12 -59
1z"/>
<path d="M1371 964 c0 -11 3 -14 6 -6 3 7 2 16 -1 19 -3 4 -6 -2 -5 -13z"/>
<path d="M2365 940 c3 -5 8 -10 11 -10 2 0 4 5 4 10 0 6 -5 10 -11 10 -5 0 -7
-4 -4 -10z"/>
<path d="M1346 885 c-3 -9 -6 -22 -5 -28 0 -7 5 -1 10 12 5 13 8 26 5 28 -2 2
-6 -3 -10 -12z"/>
<path d="M6780 890 c0 -5 7 -10 15 -10 8 0 15 -7 15 -15 0 -7 6 -18 13 -22 7
-4 24 -29 36 -56 13 -26 26 -45 31 -42 4 3 11 -7 15 -23 3 -15 24 -52 46 -84
21 -31 39 -61 39 -67 0 -6 4 -11 8 -11 4 0 14 -16 21 -35 7 -19 16 -35 20 -35
5 0 21 -27 36 -59 16 -33 37 -62 47 -64 10 -3 18 -13 18 -24 0 -10 14 -34 30
-53 l29 -35 1 80 0 80 -50 65 c-27 36 -53 70 -57 75 -24 30 -180 213 -195 228
-10 10 -18 21 -18 25 0 4 -18 26 -40 50 -38 41 -60 53 -60 32z"/>
<path d="M2312 810 c-34 -9 -65 -20 -68 -22 -3 -3 18 -13 46 -22 40 -13 55
-14 66 -5 7 6 12 15 9 19 -2 4 7 5 21 2 22 -4 25 -2 22 19 -4 30 -18 31 -96 9z"/>
<path d="M1446 761 c-4 -7 -5 -15 -2 -18 9 -9 19 4 14 18 -4 11 -6 11 -12 0z"/>
<path d="M1537 679 c7 -7 15 -10 18 -7 3 3 -2 9 -12 12 -14 6 -15 5 -6 -5z"/>
<path d="M2330 680 c-8 -5 -12 -12 -9 -15 4 -3 12 1 19 10 14 17 11 19 -10 5z"/>
<path d="M2135 585 c-39 -17 -21 -18 25 0 19 7 28 14 20 14 -8 0 -28 -6 -45
-14z"/>
<path d="M1680 510 c0 -6 23 -10 52 -10 28 0 49 3 45 6 -10 11 -97 14 -97 4z"/>
<path d="M5420 220 c0 -5 5 -10 10 -10 6 0 10 5 10 10 0 6 -4 10 -10 10 -5 0
-10 -4 -10 -10z"/>
<path d="M4866 163 c-4 -4 19 -15 50 -25 32 -10 60 -16 62 -13 3 3 0 5 -7 5
-7 0 -9 4 -6 10 4 6 -1 7 -11 3 -12 -4 -15 -3 -10 6 6 8 1 10 -17 6 -14 -4
-28 -2 -31 4 -8 13 -20 14 -30 4z"/>
</g>
</svg>
